<svg xmlns="http://www.w3.org/2000/svg" xmlns:xlink="http://www.w3.org/1999/xlink" viewBox="0 0 270.78 433.35"><defs><style>.cls-1{fill:#bfbfbf;}.cls-2{stroke:#ef7a2b;stroke-width:1.45px;fill:url(#radial-gradient);}.cls-2,.cls-4,.cls-6{stroke-miterlimit:10;}.cls-3{fill:#ef7a2b;}.cls-4,.cls-6{stroke:#000;}.cls-4{stroke-width:0.56px;fill:url(#linear-gradient);}.cls-5{fill:#fff;opacity:0.2;}.cls-6{stroke-width:2.33px;}</style><radialGradient id="radial-gradient" cx="201.86" cy="68.93" r="68.2" gradientUnits="userSpaceOnUse"><stop offset="0" stop-color="#fff"/><stop offset="0.87" stop-color="#ffffe7"/><stop offset="1" stop-color="#ef7a2b"/></radialGradient><linearGradient id="linear-gradient" x1="2.18" y1="259.65" x2="205.16" y2="259.65" gradientUnits="userSpaceOnUse"><stop offset="0" stop-color="#d48200"/><stop offset="1" stop-color="#fff82e"/></linearGradient></defs><title>1info</title><g id="Layer_2" data-name="Layer 2"><g id="Layer_1-2" data-name="Layer 1"><path class="cls-1" d="M3.82,383.51c0-5.1,44.55-9.25,99.75-9.3h1.16c55.19.06,99.75,4.2,99.75,9.3s-44.55,9.25-99.75,9.3h-1.16C48.38,392.75,3.82,388.61,3.82,383.51Z"/><circle class="cls-2" cx="201.86" cy="68.93" r="68.2"/><path class="cls-3" d="M201.86,12.38c-10.12,0-13.92,4.31-13.92,8.62s8.86,38,13.92,38,13.92-33.67,13.92-38S212,12.38,201.86,12.38Z"/><path class="cls-3" d="M162,29.34c-7.15,7.15-6.8,12.89-3.75,15.94s33.12,20.59,36.7,17-14-33.66-17-36.7S169.19,22.19,162,29.34Z"/><path class="cls-3" d="M145.88,69.49c0,10.12,4.31,13.92,8.62,13.92s38-8.86,38-13.92-33.67-13.92-38-13.92S145.88,59.38,145.88,69.49Z"/><path class="cls-3" d="M162.84,109.31c7.15,7.15,12.89,6.8,15.94,3.75s20.59-33.12,17-36.7-33.66,14-36.7,17S155.69,102.16,162.84,109.31Z"/><path class="cls-3" d="M203,125.47c10.12,0,13.92-4.31,13.92-8.62s-8.86-38-13.92-38-13.92,33.67-13.92,38S192.88,125.47,203,125.47Z"/><path class="cls-3" d="M242.81,108.51c7.15-7.15,6.8-12.89,3.75-15.94s-33.12-20.59-36.7-17,14,33.66,17,36.7S235.66,115.66,242.81,108.51Z"/><path class="cls-3" d="M259,68.36c0-10.12-4.31-13.92-8.62-13.92s-38,8.86-38,13.92,33.67,13.92,38,13.92S259,78.47,259,68.36Z"/><path class="cls-3" d="M242,28.54c-7.15-7.15-12.89-6.8-15.94-3.75s-20.59,33.12-17,36.7,33.66-14,36.7-17S249.16,35.69,242,28.54Z"/><path class="cls-4" d="M205.16,118.64l-1.26,282L4.14,400.46l-2-281.82S110.9,129.05,205.16,118.64Z"/><polygon class="cls-5" points="181.06 393.73 175.69 392.56 175.34 73.69 180.7 74.28 181.06 393.73"/><polygon class="cls-5" points="172.2 391.98 148.94 390.82 148.77 75.35 172.03 75.93 172.2 391.98"/><path class="cls-6" d="M1.3,70.66s4.07.58,8.72,1.74C11.47,118.47,7.86,379,14.46,387.74c11.84,2.28,36.85,4.71,89.69,4.71S182,390,193.84,387.74c5.57-10.81,3.46-277.53,4-314.75,2.33-.58,5.23-1.16,8.72-2.33,0,0-2.13,344.73-2.13,353.27-5.49,9.33-90.8,8.3-100.33,8.16-9.53.15-94.26,1.17-99.75-8.16,0-8.54-.49-35.21-.57-39.53v0Z"/><path class="cls-6" d="M27.75,61.85c4.3-.12,9.27-.63,15.05-.88q3.1-.13,6.51-.25c24.17-.82,76.14-1.17,83.15-.82-.15.64-.55,3-.58,3.49-9.28-.07-17-.32-28.22-.14-24.54-.4-44.44-.14-59.9.55q-8.39.37-15,.9c-13.29,1-21.46,2.5-24.72,4.06,3.4.79,11.3,2.24,27.27,3.47,4.55.35,9.74.68,15.68,1,14.09.7,32.34,1.2,55.86,1.23h1.74c66.25-.07,90.55-4.46,98-6.1,4.71-.86,5.23,1.16,2.33,3.49-.74.59-16.07,5.44-100.33,5.53h-1.75c-23,0-40.9-.49-54.85-1.15-5.91-.28-11.11-.6-15.67-.94-24.15-1.79-29.81-4-29.81-4C-1,68.33,1,62.61,27.75,61.85Z"/><path d="M54.81,72.4S29.22,71.24,20.5,70.07s18,4.65,18,4.65Z"/></g></g></svg>