<svg xmlns="http://www.w3.org/2000/svg" xmlns:xlink="http://www.w3.org/1999/xlink" viewBox="0 0 274.17 438.77"><defs><style>.cls-1{fill:#bfbfbf;}.cls-2{stroke:#ef7a2b;stroke-width:1.47px;fill:url(#radial-gradient);}.cls-2,.cls-4,.cls-6{stroke-miterlimit:10;}.cls-3{fill:#ef7a2b;}.cls-4,.cls-6{stroke:#000;}.cls-4{stroke-width:0.35px;fill:url(#linear-gradient);}.cls-5{fill:#fff;opacity:0.2;}.cls-6{stroke-width:2.36px;}</style><radialGradient id="radial-gradient" cx="204.38" cy="69.79" r="69.05" gradientUnits="userSpaceOnUse"><stop offset="0" stop-color="#fff"/><stop offset="0.87" stop-color="#ffffe7"/><stop offset="1" stop-color="#ef7a2b"/></radialGradient><linearGradient id="linear-gradient" x1="2.2" y1="351.02" x2="207.72" y2="351.02" gradientUnits="userSpaceOnUse"><stop offset="0" stop-color="#d48200"/><stop offset="1" stop-color="#fff82e"/></linearGradient></defs><title>4info</title><g id="Layer_2" data-name="Layer 2"><g id="Layer_1-2" data-name="Layer 1"><path class="cls-1" d="M3.87,388.3c0-5.17,45.11-9.36,101-9.42H106c55.88.06,101,4.25,101,9.42s-45.11,9.36-101,9.42h-1.18C49,397.66,3.87,393.47,3.87,388.3Z"/><circle class="cls-2" cx="204.38" cy="69.79" r="69.05"/><path class="cls-3" d="M204.38,12.53c-10.24,0-14.1,4.36-14.1,8.73s9,38.46,14.1,38.46,14.1-34.09,14.1-38.46S214.62,12.53,204.38,12.53Z"/><path class="cls-3" d="M164.06,29.71c-7.24,7.24-6.88,13.05-3.8,16.14S193.8,66.7,197.43,63.07,183.29,29,180.2,25.91,171.31,22.47,164.06,29.71Z"/><path class="cls-3" d="M147.7,70.36c0,10.24,4.36,14.1,8.73,14.1s38.46-9,38.46-14.1-34.09-14.1-38.46-14.1S147.7,60.12,147.7,70.36Z"/><path class="cls-3" d="M164.88,110.68c7.24,7.24,13.05,6.88,16.14,3.8s20.85-33.54,17.22-37.16-34.08,14.14-37.16,17.22S157.63,103.44,164.88,110.68Z"/><path class="cls-3" d="M205.53,127c10.24,0,14.1-4.36,14.1-8.73s-9-38.46-14.1-38.46-14.1,34.09-14.1,38.46S195.29,127,205.53,127Z"/><path class="cls-3" d="M245.85,109.87c7.24-7.24,6.88-13.05,3.8-16.14S216.11,72.88,212.48,76.5s14.14,34.08,17.22,37.16S238.61,117.11,245.85,109.87Z"/><path class="cls-3" d="M262.21,69.21c0-10.24-4.36-14.1-8.73-14.1S215,64.09,215,69.21s34.09,14.1,38.46,14.1S262.21,79.45,262.21,69.21Z"/><path class="cls-3" d="M245,28.89C237.79,21.65,232,22,228.89,25.1S208,58.63,211.67,62.26,245.75,48.12,248.83,45,252.28,36.14,245,28.89Z"/><path class="cls-4" d="M207.72,296.37l-1.28,109.3L4.19,405.59l-2-109.22S112.28,300.41,207.72,296.37Z"/><polygon class="cls-5" points="183.32 398.65 177.88 397.47 177.53 74.62 182.96 75.2 183.32 398.65"/><polygon class="cls-5" points="174.35 396.88 150.8 395.7 150.63 76.29 174.18 76.88 174.35 396.88"/><path class="cls-6" d="M1.32,71.54s4.12.59,8.83,1.77C11.61,120,8,383.72,14.64,392.58c12,2.31,37.31,4.77,90.81,4.77s78.83-2.46,90.81-4.77c5.64-10.95,3.51-281,4.1-318.69,2.36-.59,5.3-1.18,8.83-2.36,0,0-2.16,349-2.16,357.69-5.56,9.45-91.93,8.41-101.58,8.26-9.65.15-95.44,1.19-101-8.26,0-8.65-.5-35.65-.58-40v0Z"/><path class="cls-6" d="M28.1,62.63c4.36-.12,9.39-.64,15.24-.9q3.14-.14,6.59-.25c24.47-.83,77.09-1.18,84.19-.83-.15.65-.56,3.06-.59,3.53-9.4-.07-17.23-.33-28.57-.14-24.85-.41-45-.14-60.65.55q-8.5.38-15.23.91C15.61,66.56,7.35,68,4,69.61c3.45.8,11.44,2.26,27.61,3.51,4.6.36,9.86.69,15.88,1,14.27.71,32.75,1.22,56.56,1.24h1.77c67.08-.07,91.68-4.52,99.23-6.18,4.77-.87,5.3,1.18,2.36,3.53-.75.6-16.27,5.51-101.58,5.59h-1.77c-23.26,0-41.41-.49-55.53-1.17-6-.29-11.25-.61-15.86-1C8.23,74.38,2.5,72.13,2.5,72.13-1,69.18,1,63.39,28.1,62.63Z"/><path d="M55.5,73.31S29.59,72.13,20.75,71,39,75.66,39,75.66Z"/></g></g></svg>