<svg xmlns="http://www.w3.org/2000/svg" viewBox="0 0 281.06 534.5"><defs><style>.cls-1{fill:#c33;}.cls-1,.cls-2,.cls-3,.cls-4,.cls-5{stroke:#000;stroke-miterlimit:10;stroke-width:3px;}.cls-2{fill:#b9b7b8;}.cls-3{fill:#7a7a7a;}.cls-4{fill:#919191;}.cls-5,.cls-6{fill:#fff;}</style></defs><title>coke</title><g id="Layer_2" data-name="Layer 2"><g id="Layer_1-2" data-name="Layer 1"><path class="cls-1" d="M28.06,44.5s0,6-6,17-17,20-19,39S1.56,470,1.56,470s9,46,142,46,136-46,136-46V99c0-9-18-34-22-42s-3-14-3-14-1,21-114,21S28.06,44.5,28.06,44.5Z"/><path class="cls-2" d="M140.28,64.5c123.27,0,130.4-27.62,110-45.29s-96.78-17.67-111-17.67S47.07-.13,29.23,19.21C14,35.78,11.92,64.5,140.28,64.5Z"/><path class="cls-3" d="M146.06,49.5c26,0,99,1,101.5-16.5,2-14-69-20.64-109-22-59-2-124.56,9.48-101,25C57,48.83,86.06,49.5,146.06,49.5Z"/><path class="cls-4" d="M43.18,38.44s-9.37-4.17-10.37-8.25C31.41,24.43,45,19.92,54.56,18c10-2,47.45-9,84-7,36.81,2,52.49,3.79,68,6,14.28,2,35.91,6.26,40,13s-4.82,10.07-4.82,10.07-26.64-12.54-86.91-12.8S53.81,29.89,43.18,38.44Z"/><path class="cls-2" d="M154.35,26.82c-17-5.74-61.87-9.7-73.43-8.2S61.44,25.78,68.84,32.11c5.77,4.94,52.09,14.28,78.08,11.4S171.35,32.56,154.35,26.82ZM93.75,30c-5.74-.25-15.91-1.47-15.82-3.47s7.95-3.86,15.6-3.53,16.1,1.9,16,3.9S99.49,30.29,93.75,30ZM132,36.85c-20.13.13-16.69-5.89-13.09-7.58,3.91-1.83,13.56-3.41,23,0S152.09,36.73,132,36.85Z"/><path class="cls-3" d="M8.56,482s35,51,134,51,127.1-46.13,127.1-46.13S245.56,518,143.56,516,28.56,497,8.56,482Z"/><path class="cls-5" d="M143.56,65c20.8-.25,48.55-.25,67.27-4.62C215.56,81,175.56,156,216.56,287s3,221,3,221-40.7,8.28-68,8c0,0-22-130-6-209S198.76,209.25,143.56,65Z"/><path class="cls-6" d="M112.31,434.14c.12-.71.41-1.06.85-1.06,1.4,0,3.49,1.85,6.44,5.56a63.18,63.18,0,0,1,10.94,21.42c2,6.46,2.28,11.62.59,15.46s-5.13,5.77-10.57,5.77c-7.76,0-16-3.89-23.88-10.8-7.16-6.27-13.75-17.4-15.52-26.79a54.46,54.46,0,0,1-.61-16.86l5.05,3.08,1.48.87a3.91,3.91,0,0,1,2,2.71,7.29,7.29,0,0,1,.05,1,3.7,3.7,0,0,0-1.71-.64c-1.41,0-2.45,1.37-3,4.12a22.55,22.55,0,0,0,.36,9.59,32.59,32.59,0,0,0,11.27,18.24,28.59,28.59,0,0,0,18.45,7c5.05,0,8.42-1.64,10.27-4.92s1.9-7.67.42-13.16a44.74,44.74,0,0,0-5.26-11.85A28.7,28.7,0,0,0,112.31,434.14Z"/><path class="cls-6" d="M122.1,414.29c.41,6.89-2.29,10.34-8.6,10.34-5.08,0-10.31-2.69-15.4-8.09s-7.63-11-7.61-16.77c0-7,3.38-10.48,9.69-10.48,5.1,0,9.84,2.7,14.48,8.09S121.75,408.41,122.1,414.29Zm-3.82-5.56a11.85,11.85,0,0,0-4.21-8.85A14.71,14.71,0,0,0,104,396.32c-6.6,0-10,3-9.88,8.92a11.36,11.36,0,0,0,4.42,8.8,15.69,15.69,0,0,0,10.34,3.56C115.47,417.6,118.49,414.64,118.29,408.73Z"/><path class="cls-6" d="M95.27,352.11c1.42,2.1,2.14,3.14,3.59,5.24a26.11,26.11,0,0,0-2,7c-.48,4,.38,7.18,2.51,9.49s5.26,3.47,9.35,3.47a10.47,10.47,0,0,0,7.17-2.5,9.76,9.76,0,0,0,3.28-6.55,10.77,10.77,0,0,0-4.86-10.75,2.41,2.41,0,0,1,1.57-1c1.76,0,3.41,2,5.07,6a22.91,22.91,0,0,1,2,10.91,12.83,12.83,0,0,1-3.29,7.83,9.28,9.28,0,0,1-7.07,3.06c-5.48,0-10.34-2.7-14.36-8.09a23.69,23.69,0,0,1-4.73-18A20.66,20.66,0,0,1,95.27,352.11Z"/><path class="cls-6" d="M118.08,319.57A37.92,37.92,0,0,1,125.5,331q2.58,6.22,1.81,10.81c-.72,4.19-3.38,6.29-8.05,6.29-6.43,0-11.54-3.06-15.17-9.17s-4.6-13.35-2.87-21.71a38,38,0,0,1,2.54-8.13l.64.28,1.56.55q1.63.55,1.9.6l13.39,2.94,1.94.41a23.82,23.82,0,0,0,3.9.6,1.42,1.42,0,0,0,1.6-1.14q.81-3.84-4.26-7.87c.52-.82.94-1.23,1.28-1.23q1.11,0,3.62,4,3.42,5.37,2.47,10c-.46,2.24-1.72,3.35-3.79,3.35a13.84,13.84,0,0,1-2.57-.32l-2.45-.46-2.67-.6Zm-12-2.62a26.72,26.72,0,0,0-3.33,8.46,11,11,0,0,0,3.37,10.81c3.09,2.91,7.32,4.37,12.66,4.37,2.75,0,4.32-1.18,4.75-3.54.49-2.73-.34-6-2.45-9.88-2.85-5.21-6.74-8.37-11.73-9.47Z"/><path class="cls-6" d="M121.75,298.9l-2.81-6c1.89-8.58,2.85-12.88,4.7-21.46l2.84,5.93C124.6,286,123.64,290.3,121.75,298.9Z"/><path class="cls-6" d="M139.79,216.83c.32-.71.7-1.06,1.15-1.06,1.4,0,3,1.85,4.8,5.56,3,6.28,3.82,13.42,2.38,21.42-1.17,6.46-3.81,11.62-7.82,15.46A19.83,19.83,0,0,1,126.11,264c-7.76,0-13.49-3.6-17.33-10.8S104,237,105.6,226.38a93,93,0,0,1,4.28-16.86l4.33,3.08,1.26.87a2.81,2.81,0,0,1,1.29,2.71,7.36,7.36,0,0,1-.22,1,2.81,2.81,0,0,0-1.53-.64c-1.41,0-2.81,1.37-4.23,4.12a31.26,31.26,0,0,0-3,9.59c-1.18,7.48-.26,13.57,2.93,18.24s8,7,14.55,7a18.82,18.82,0,0,0,13-4.92,22.19,22.19,0,0,0,6.91-13.16,27.3,27.3,0,0,0-.57-11.85C143.62,221.6,142,218.7,139.79,216.83Z"/><path class="cls-6" d="M153.61,197c-.46,6.89-4,10.34-10.31,10.34-5.08,0-9.67-2.7-14-8.09s-6.39-11-6.31-16.77c.1-7,3.08-10.48,9.39-10.48,5.1,0,10.12,2.7,14.79,8.09S154,191.09,153.61,197Zm-3.24-5.56a10.65,10.65,0,0,0-3.79-8.85,14.67,14.67,0,0,0-10.1-3.56c-6.6,0-9.86,3-10.06,8.92a10.94,10.94,0,0,0,3.64,8.8,13.91,13.91,0,0,0,9.85,3.56C146.52,200.28,150.1,197.33,150.38,191.41Z"/><path class="cls-6" d="M142,148.16c.17-.88.49-1.33,1-1.33,1.52,0,3.67,1.65,6.31,4.94s4,6.06,4.2,8.3c.21,2.54-1,3.81-3.53,3.81a28.41,28.41,0,0,1-4.76-.41l-2.86-.51L120,159.42c-6.82-1.1-12.69-4.45-17.94-10a41.65,41.65,0,0,1-10.31-19.32,33.42,33.42,0,0,1-.81-4.5c2.53,2.61,3.77,3.91,6.2,6.52a25.24,25.24,0,0,0,.56,5c.91,4.59,2.54,8,5.1,10.3s6.52,3.85,12,4.7l27,4.26a32.05,32.05,0,0,0,4.46.51c1.9,0,2.81-.47,2.71-1.42a7.5,7.5,0,0,0-2.33-4A14.08,14.08,0,0,0,142,148.16Z"/><path class="cls-6" d="M130.53,113.19a67.7,67.7,0,0,1,13.13,11.41c3.62,4.15,5.7,7.75,6.33,10.81.87,4.19-1.14,6.29-5.82,6.29-6.43,0-12.45-3.06-18.52-9.17a57.19,57.19,0,0,1-13.3-21.71,48.76,48.76,0,0,1-2.27-8.13l.81.28,1.9.55q2,.55,2.27.6L130.2,107l2.19.41a30.39,30.39,0,0,0,4.25.6c.91,0,1.22-.38.93-1.14q-1.46-3.84-9.13-7.87c0-.82.14-1.23.48-1.23.74,0,2.83,1.32,6.16,4,4.53,3.58,7.3,6.91,8.37,10,.78,2.24.1,3.35-2,3.35a16.71,16.71,0,0,1-2.74-.32L136,114.3l-3-.6ZM117,110.57a26.34,26.34,0,0,0,1.17,8.46,19.83,19.83,0,0,0,8.34,10.81A25.1,25.1,0,0,0,141,134.2c2.75,0,3.88-1.18,3.33-3.54-.64-2.73-2.91-6-6.91-9.88-5.39-5.21-11.07-8.37-16.67-9.47Z"/></g></g></svg>