<svg xmlns="http://www.w3.org/2000/svg" xmlns:xlink="http://www.w3.org/1999/xlink" viewBox="0 0 691 998.92"><defs><style>.cls-1{fill:#bfbfbf;}.cls-2{stroke:#ef7a2b;stroke-width:2.75px;fill:url(#radial-gradient);}.cls-2,.cls-4,.cls-6{stroke-miterlimit:10;}.cls-3{fill:#ef7a2b;}.cls-4,.cls-6{stroke:#000;}.cls-4{stroke-width:1.05px;fill:url(#linear-gradient);}.cls-5,.cls-7{fill:#fff;}.cls-5{opacity:0.2;}.cls-6{stroke-width:4.39px;}.cls-8{font-size:50px;fill:#6b6b6b;font-family:FilsonSoftRegular, Filson Soft;}.cls-9{letter-spacing:-0.03em;}.cls-10{letter-spacing:0em;}.cls-11{letter-spacing:0.01em;}</style><radialGradient id="radial-gradient" cx="529.08" cy="310.64" r="128.8" gradientUnits="userSpaceOnUse"><stop offset="0" stop-color="#fff"/><stop offset="0.87" stop-color="#ffffe7"/><stop offset="1" stop-color="#ef7a2b"/></radialGradient><linearGradient id="linear-gradient" x1="151.95" y1="670.85" x2="535.31" y2="670.85" gradientUnits="userSpaceOnUse"><stop offset="0" stop-color="#d48200"/><stop offset="1" stop-color="#fff82e"/></linearGradient></defs><title>first</title><g id="Layer_2" data-name="Layer 2"><g id="Layer_1-2" data-name="Layer 1"><path class="cls-1" d="M155.06,904.77c0-9.64,84.14-17.46,188.39-17.57h2.19c104.24.11,188.39,7.93,188.39,17.57s-84.14,17.46-188.39,17.57h-2.19C239.2,922.24,155.06,914.41,155.06,904.77Z"/><circle class="cls-2" cx="529.08" cy="310.64" r="128.8"/><path class="cls-3" d="M529.08,203.84c-19.11,0-26.3,8.14-26.3,16.28s16.73,71.74,26.3,71.74,26.3-63.6,26.3-71.74S548.18,203.84,529.08,203.84Z"/><path class="cls-3" d="M453.87,235.88C440.36,249.39,441,260.23,446.79,266s62.56,38.89,69.32,32.13S489.74,234.55,484,228.79,467.38,222.37,453.87,235.88Z"/><path class="cls-3" d="M423.35,311.71c0,19.11,8.14,26.3,16.28,26.3s71.74-16.73,71.74-26.3-63.6-26.3-71.74-26.3S423.35,292.61,423.35,311.71Z"/><path class="cls-3" d="M455.39,386.92c13.51,13.51,24.35,12.84,30.11,7.08s38.89-62.56,32.13-69.32-63.56,26.37-69.32,32.13S441.88,373.41,455.39,386.92Z"/><path class="cls-3" d="M531.22,417.44c19.11,0,26.3-8.14,26.3-16.28s-16.73-71.74-26.3-71.74-26.3,63.6-26.3,71.74S512.12,417.44,531.22,417.44Z"/><path class="cls-3" d="M606.43,385.4c13.51-13.51,12.84-24.35,7.08-30.11S551,316.4,544.19,323.16s26.37,63.56,32.13,69.32S592.92,398.91,606.43,385.4Z"/><path class="cls-3" d="M637,309.56c0-19.11-8.14-26.3-16.28-26.3s-71.74,16.73-71.74,26.3,63.6,26.3,71.74,26.3S637,328.67,637,309.56Z"/><path class="cls-3" d="M604.91,234.36c-13.51-13.51-24.35-12.84-30.11-7.08s-38.89,62.56-32.13,69.32,63.56-26.37,69.32-32.13S618.42,247.87,604.91,234.36Z"/><path class="cls-4" d="M535.31,404.53l-2.38,532.65-377.27-.39-3.71-532.26S357.29,424.2,535.31,404.53Z"/><polygon class="cls-5" points="489.79 924.07 479.66 921.88 478.99 319.64 489.13 320.74 489.79 924.07"/><polygon class="cls-5" points="473.06 920.78 429.13 918.58 428.81 322.76 472.75 323.86 473.06 920.78"/><path class="cls-6" d="M150.3,313.91s7.69,1.1,16.48,3.3c2.72,87-4.1,579,8.37,595.56,22.36,4.31,69.59,8.9,169.4,8.9s147-4.58,169.4-8.9c10.51-20.42,6.54-524.16,7.64-594.46,4.39-1.1,9.89-2.2,16.48-4.39,0,0-4,651.08-4,667.21-10.37,17.62-171.49,15.68-189.49,15.41-18,.27-178,2.22-188.39-15.41,0-16.13-.93-66.49-1.08-74.66l0,0Z"/><path class="cls-6" d="M200.25,297.28c8.13-.23,17.51-1.2,28.43-1.67q5.85-.25,12.29-.47c45.65-1.55,143.8-2.21,157-1.55-.29,1.21-1,5.7-1.1,6.59-17.53-.13-32.15-.61-53.29-.27-46.35-.76-83.94-.27-113.13,1q-15.85.7-28.41,1.71c-25.11,2-40.52,4.72-46.7,7.67,6.43,1.5,21.34,4.22,51.5,6.55,8.59.66,18.4,1.29,29.62,1.85C263.11,320.05,297.57,321,342,321h3.29c125.12-.12,171-8.42,185.09-11.52,8.9-1.62,9.89,2.2,4.39,6.59-1.39,1.11-30.36,10.27-189.49,10.44H342c-43.39,0-77.24-.92-103.59-2.18-11.16-.53-21-1.14-29.59-1.77C163.2,319.2,152.5,315,152.5,315,145.91,309.51,149.67,298.71,200.25,297.28Z"/><path d="M251.36,317.2S203,315,186.55,312.81s34.05,8.79,34.05,8.79Z"/><rect class="cls-7" width="691" height="111" rx="52.62" ry="52.62"/><text class="cls-8" transform="translate(53.55 73.67) scale(1.45 1)">ORDER<tspan class="cls-9" x="175.7" y="0" xml:space="preserve"> A</tspan><tspan class="cls-10" x="219.85" y="0" xml:space="preserve"> DRIN</tspan><tspan class="cls-11" x="356.35" y="0">K</tspan><tspan x="388.75" y="0">!</tspan></text></g></g></svg>