<svg xmlns="http://www.w3.org/2000/svg" viewBox="0 0 205.39 651.96"><defs><style>.cls-1{fill:#51bde9;}.cls-1,.cls-2,.cls-3,.cls-4,.cls-5{stroke:#000;stroke-miterlimit:10;stroke-width:2.56px;}.cls-2{fill:#fc3;}.cls-3{fill:#f5f5f5;}.cls-4{fill:#271850;}.cls-5{fill:#2c80c1;}.cls-6{font-size:74.89px;font-family:BodoniSvtyTwoSCITCTT-Book, Bodoni 72 Smallcaps;}</style></defs><title>gin</title><g id="Layer_2" data-name="Layer 2"><g id="Layer_1-2" data-name="Layer 1"><path class="cls-1" d="M139.69,92H63s3.83,23.42-24.28,49.83S1.28,173.34,1.28,176.74,4.68,602.63,4.68,602.63s-6.81,29.81,2.56,39.18,30.66,9.37,95.4,8.52,86.88,1.7,95.4-6.81,6.81-31.52,2.56-40c0-11.92,2.56-424.18,2.56-424.18s-23.85-25.55-38.33-37.48S141,111.16,139.69,92Z"/><path class="cls-2" d="M100.94,197.19c29-.76,73.25,17,73.25,25.55s-.85,385-.85,385H28.53v-385C28.53,214.22,68.57,198,100.94,197.19Z"/><path class="cls-3" d="M37.05,599.22V224.48c5.8-5.65,36.06-18,64.11-18.78l1.61,0c24.56,0,56.62,13,62.9,18.93,0,27.14-.71,320.57-.83,374.62Z"/><path class="cls-2" d="M138.41,295.75c0-30.68-16-55.55-35.77-55.55s-35.77,24.87-35.77,55.55c0,22,8.21,40.95,20.12,50a27.82,27.82,0,0,0-4.79,15.88c0,13.64,9.15,24.69,20.44,24.69s20.44-11.05,20.44-24.69a27.82,27.82,0,0,0-4.79-15.88C130.2,336.7,138.41,317.72,138.41,295.75Z"/><path class="cls-4" d="M62.61,91.57S58.35,73.68,66,73.68h71.55c7.67,0,2.56,17.89,2.56,17.89Z"/><path class="cls-5" d="M66.44,73.25S69,68.14,63,66.44s-6.81-10.22,1.7-10.22h74.1c9.37,0,7.24,9.8.43,10.65S138,73.55,138,73.55Z"/><path class="cls-5" d="M63.46,55.79V16.61s23.85-2.56,39.18-2.56,37.48,2.56,37.48,2.56V55.79Z"/><path class="cls-5" d="M63.46,16.61s-5.11,0-5.11-6,6.81-9.37,44.29-9.37,42.59,3.41,42.59,9.37-5.11,6-5.11,6-15.33-2.56-38.33-2.56S63.46,16.61,63.46,16.61Z"/><text class="cls-6" transform="translate(40.8 471.85) scale(0.97 1)">GIN</text><path class="cls-2" d="M111.38,96.45l7.87-7.87S119,22.15,119,15c-4.26-.33-13-.48-17.61-.5h-.85c-4.59,0-13.35.17-17.61.5,0,7.17-.28,73.61-.28,73.61l7.87,7.87a18.74,18.74,0,1,0,20.89,0Z"/></g></g></svg>