<svg xmlns="http://www.w3.org/2000/svg" xmlns:xlink="http://www.w3.org/1999/xlink" viewBox="0 0 281.06 534.5"><defs><style>.cls-1,.cls-2,.cls-3,.cls-4,.cls-5{stroke:#000;}.cls-1,.cls-2,.cls-3,.cls-4,.cls-5,.cls-6{stroke-miterlimit:10;}.cls-1,.cls-2,.cls-3,.cls-4,.cls-6{stroke-width:3px;}.cls-1{fill:url(#linear-gradient);}.cls-2{fill:#b9b7b8;}.cls-3{fill:#7a7a7a;}.cls-4{fill:#919191;}.cls-5{fill:#fcce08;stroke-width:2.78px;}.cls-6{font-size:65px;fill:#c33;stroke:#c33;font-family:Skia-Regular, Skia;}</style><linearGradient id="linear-gradient" x1="140.53" y1="469.98" x2="140.53" y2="180.56" gradientUnits="userSpaceOnUse"><stop offset="0" stop-color="#99b74f"/><stop offset="0.47" stop-color="#5a883f"/><stop offset="0.74" stop-color="#346c36"/></linearGradient></defs><title>gingerale</title><g id="Layer_2" data-name="Layer 2"><g id="Layer_1-2" data-name="Layer 1"><path class="cls-1" d="M28.06,44.5s0,6-6,17-17,20-19,39S1.56,470,1.56,470s9,46,142,46,136-46,136-46V99c0-9-18-34-22-42s-3-14-3-14-1,21-114,21S28.06,44.5,28.06,44.5Z"/><path class="cls-2" d="M140.28,64.5c123.27,0,130.4-27.62,110-45.29s-96.78-17.67-111-17.67S47.07-.13,29.23,19.21C14,35.78,11.92,64.5,140.28,64.5Z"/><path class="cls-3" d="M146.06,49.5c26,0,99,1,101.5-16.5,2-14-69-20.64-109-22-59-2-124.56,9.48-101,25C57,48.83,86.06,49.5,146.06,49.5Z"/><path class="cls-4" d="M43.18,38.44s-9.37-4.17-10.37-8.25C31.41,24.43,45,19.92,54.56,18c10-2,47.45-9,84-7,36.81,2,52.49,3.79,68,6,14.28,2,35.91,6.26,40,13s-4.82,10.07-4.82,10.07-26.64-12.54-86.91-12.8S53.81,29.89,43.18,38.44Z"/><path class="cls-2" d="M154.35,26.82c-17-5.74-61.87-9.7-73.43-8.2S61.44,25.78,68.84,32.11c5.77,4.94,52.09,14.28,78.08,11.4S171.35,32.56,154.35,26.82ZM93.75,30c-5.74-.25-15.91-1.47-15.82-3.47s7.95-3.86,15.6-3.53,16.1,1.9,16,3.9S99.49,30.29,93.75,30ZM132,36.85c-20.13.13-16.69-5.89-13.09-7.58,3.91-1.83,13.56-3.41,23,0S152.09,36.73,132,36.85Z"/><path class="cls-3" d="M8.56,482s35,51,134,51,127.1-46.13,127.1-46.13S245.56,518,143.56,516,28.56,497,8.56,482Z"/><path class="cls-5" d="M245,247.6c-13.53-34.34-1.29-50.84-1.29-50.84l-30-41.44s-7.61,18-34.79,25.35c-6.81,1.84-11.47,2.34-15.2,2.21,3.47-18,17-39.26,13.07-40.85-5.74-2.3-19.52,21.82-25.26,19.52s-2.3-16.08-8-16.08-1.15,14.93-11.48,16.08-14.93-26.41-21.82-25.26,2.3,28.71-6.89,33.3S94.14,157,87.25,158.11s3.45,17.23-4.59,23-18.37-9.19-23-6.89,20,29.58,20,29.58L80,204a69.58,69.58,0,0,1-8.85,2.39c-27.56,5.74-42.49-6.89-42.49-6.89l-8,50.53S39,259.16,42.46,295.91s2.3,62,23,75.79,56.27,4.59,74.64,12.63c17.51,7.66,32.93,15.32,34.33,16l0,.15.07-.09h0v0c.94-1.26,11.23-15.06,23.39-29.81,12.76-15.47,48.67-23.36,60.88-45S258.57,281.94,245,247.6Z"/><text class="cls-6" transform="translate(57.45 301.18) rotate(-14.21) scale(0.73 1)">GINGER<tspan x="62.03" y="52">ALE</tspan></text></g></g></svg>