<svg xmlns="http://www.w3.org/2000/svg" xmlns:xlink="http://www.w3.org/1999/xlink" viewBox="0 0 309.13 309.13"><defs><style>.cls-1,.cls-2{stroke:#000;stroke-miterlimit:10;stroke-width:3.82px;}.cls-1{fill:url(#radial-gradient);}.cls-2{fill:#add24d;}</style><radialGradient id="radial-gradient" cx="154.57" cy="154.57" r="152.66" gradientUnits="userSpaceOnUse"><stop offset="0" stop-color="#fff"/><stop offset="0.87" stop-color="#ffffe7"/><stop offset="1" stop-color="#9bbe4d"/></radialGradient></defs><title>lime</title><g id="Layer_2" data-name="Layer 2"><g id="Layer_1-2" data-name="Layer 1"><circle class="cls-1" cx="154.57" cy="154.57" r="152.66"/><path class="cls-2" d="M154.57,28c-22.64,0-31.17,9.65-31.17,19.3s19.83,85,31.17,85,31.17-75.37,31.17-85S177.21,28,154.57,28Z"/><path class="cls-2" d="M65.43,66c-16,16-15.22,28.86-8.39,35.68s74.14,46.09,82.16,38.08-31.26-75.34-38.08-82.16S81.45,50,65.43,66Z"/><path class="cls-2" d="M29.26,155.84c0,22.64,9.65,31.17,19.3,31.17s85-19.83,85-31.17-75.37-31.17-85-31.17S29.26,133.2,29.26,155.84Z"/><path class="cls-2" d="M67.23,245c16,16,28.86,15.22,35.68,8.39S149,179.22,141,171.21s-75.34,31.26-82.16,38.08S51.22,229,67.23,245Z"/><path class="cls-2" d="M157.11,281.15c22.64,0,31.17-9.65,31.17-19.3s-19.83-85-31.17-85-31.17,75.37-31.17,85S134.47,281.15,157.11,281.15Z"/><path class="cls-2" d="M246.24,243.17c16-16,15.22-28.86,8.39-35.68s-74.14-46.09-82.16-38.08,31.26,75.34,38.08,82.16S230.23,259.18,246.24,243.17Z"/><path class="cls-2" d="M282.42,153.29c0-22.64-9.65-31.17-19.3-31.17s-85,19.83-85,31.17,75.37,31.17,85,31.17S282.42,175.94,282.42,153.29Z"/><path class="cls-2" d="M244.44,64.16c-16-16-28.86-15.22-35.68-8.39s-46.09,74.14-38.08,82.16S246,106.67,252.84,99.85,260.46,80.17,244.44,64.16Z"/></g></g></svg>