<svg xmlns="http://www.w3.org/2000/svg" xmlns:xlink="http://www.w3.org/1999/xlink" viewBox="0 0 173.34 149.13"><defs><style>.cls-1,.cls-4,.cls-7{stroke:#000;}.cls-1,.cls-2,.cls-4,.cls-6,.cls-7,.cls-8{stroke-miterlimit:10;}.cls-1,.cls-6,.cls-8{stroke-width:2.07px;}.cls-1{fill:url(#radial-gradient);}.cls-2{fill:#add24d;stroke:#9bb744;stroke-width:0.3px;}.cls-3{fill:#bfbfbf;}.cls-4,.cls-7{fill:#fff;}.cls-4{stroke-width:1.77px;}.cls-5{fill:red;opacity:0.6;}.cls-6{fill:#333;}.cls-6,.cls-8{stroke:#020100;}.cls-7{stroke-width:1.84px;}</style><radialGradient id="radial-gradient" cx="36.46" cy="36.46" r="35.42" gradientUnits="userSpaceOnUse"><stop offset="0" stop-color="#fff"/><stop offset="0.87" stop-color="#ffffe7"/><stop offset="1" stop-color="#9bbe4d"/></radialGradient></defs><title>mixdrinkicon</title><g id="Layer_2" data-name="Layer 2"><g id="Layer_1-2" data-name="Layer 1"><polygon points="140.21 68.19 141.25 53.58 141.4 38.37 140.51 38.37 140.21 68.19"/><circle class="cls-1" cx="36.46" cy="36.46" r="35.42"/><path class="cls-2" d="M36.46,7.08c-5.25,0-7.23,2.24-7.23,4.48s4.6,19.73,7.23,19.73,7.23-17.49,7.23-19.73S41.71,7.08,36.46,7.08Z"/><path class="cls-2" d="M15.77,15.9c-3.72,3.72-3.53,6.7-1.95,8.28S31,34.87,32.89,33s-7.25-17.48-8.84-19.06S19.49,12.18,15.77,15.9Z"/><path class="cls-2" d="M7.38,36.75C7.38,42,9.62,44,11.86,44s19.73-4.6,19.73-7.23S14.1,29.52,11.86,29.52,7.38,31.5,7.38,36.75Z"/><path class="cls-2" d="M16.19,57.43c3.72,3.72,6.7,3.53,8.28,1.95s10.7-17.2,8.84-19.06-17.48,7.25-19.06,8.84S12.48,53.72,16.19,57.43Z"/><path class="cls-2" d="M37,65.83c5.25,0,7.23-2.24,7.23-4.48S39.68,41.62,37,41.62s-7.23,17.49-7.23,19.73S31.79,65.83,37,65.83Z"/><path class="cls-2" d="M57.73,57c3.72-3.72,3.53-6.7,1.95-8.28S42.47,38,40.61,39.9,47.87,57.38,49.45,59,54,60.73,57.73,57Z"/><path class="cls-2" d="M66.12,36.16c0-5.25-2.24-7.23-4.48-7.23s-19.73,4.6-19.73,7.23,17.49,7.23,19.73,7.23S66.12,41.41,66.12,36.16Z"/><path class="cls-2" d="M57.31,15.48c-3.72-3.72-6.7-3.53-8.28-1.95s-10.7,17.2-8.84,19.06,17.48-7.25,19.06-8.84S61,19.19,57.31,15.48Z"/><path class="cls-3" d="M140.36,123.39c0-2.59-22.61-4.69-50.63-4.72h-.59c-28,0-50.63,2.13-50.63,4.72s22.61,4.69,50.63,4.72h.59C117.75,128.08,140.36,126,140.36,123.39Z"/><path class="cls-4" d="M65.94,121.44c5,3.84,12,3.32,12,3.32L125.75,40c-5,0-7.68.12-14,.29Z"/><path class="cls-5" d="M37.93,62.73l.89,69.37L140.2,132,141,62.73S85.77,68,37.93,62.73Z"/><polygon points="38.37 68.19 37.34 53.58 37.19 38.37 38.08 38.37 38.37 68.19"/><path class="cls-6" d="M128,33.91c-2.18-.07-4.7-.32-7.64-.45l-3.3-.13c-12.27-.42-40.12-.59-43.68-.42.09.48.19,1.27.3,1.77,4.71,0,10.12-.16,15.8-.07,12.46-.2,22.56-.07,30.4.28q4.26.19,7.64.46c6.75.53,9.74,1.2,11.4,2a68.78,68.78,0,0,1-12.69,1.83c-2.31.18-4.94.35-8,.5-7.15.36-16.42.61-28.35.62H89c-33.62,0-46.06-2-49.85-2.81-2-.5-1.81,1-1.81,1.34.4.27,8.9,2.91,51.66,3h.89c11.66,0,20.76-.25,27.84-.59,3-.14,5.64-.31,8-.48,12.26-.91,15.87-2.18,15.87-2.18C141.84,36.75,141.43,34.31,128,33.91Z"/><path class="cls-7" d="M170.64,15.2,132,18.67c-5.74.71-9.05,3.45-10.52,5.88l-9.64,15,14.19-.44,4.75-7.69c1-1.74,3.26-2.25,5.34-2.5L171.21,26C173.07,24.15,172.72,16,170.64,15.2Z"/><path class="cls-8" d="M141.25,39.11s-1.71,80.36-6.28,86.42c-6,1.16-18.7,2.39-45.52,2.39s-39.51-1.23-45.52-2.39c-4.58-6.06-6.58-86.42-6.58-86.42s1.18,100.46,1.18,104.79c2.79,4.74,46.08,4.21,50.92,4.14s47.84.6,50.62-4.14c0-4.33.25-17.87.29-20.06h0Z"/></g></g></svg>