<svg xmlns="http://www.w3.org/2000/svg" xmlns:xlink="http://www.w3.org/1999/xlink" viewBox="0 0 342.64 342.64"><defs><style>.cls-1,.cls-2{stroke:#000;stroke-miterlimit:10;stroke-width:4.23px;}.cls-1{fill:url(#radial-gradient);}.cls-2{fill:#ef7a2b;}</style><radialGradient id="radial-gradient" cx="5193.21" cy="-4218.66" r="169.21" gradientTransform="translate(-4047.34 -5021.89) rotate(90)" gradientUnits="userSpaceOnUse"><stop offset="0" stop-color="#fff"/><stop offset="0.87" stop-color="#ffffe7"/><stop offset="1" stop-color="#ef7a2b"/></radialGradient></defs><title>orange</title><g id="Layer_2" data-name="Layer 2"><g id="Layer_1-2" data-name="Layer 1"><circle class="cls-1" cx="171.32" cy="171.32" r="169.21"/><path class="cls-2" d="M311.62,171.32c0-25.1-10.69-34.55-21.39-34.55S196,158.76,196,171.32s83.54,34.55,94.24,34.55S311.62,196.42,311.62,171.32Z"/><path class="cls-2" d="M269.53,72.53c-17.75-17.75-32-16.87-39.55-9.3s-51.09,82.18-42.21,91.06,83.5-34.65,91.06-42.21S287.28,90.27,269.53,72.53Z"/><path class="cls-2" d="M169.91,32.43c-25.1,0-34.55,10.69-34.55,21.39s22,94.24,34.55,94.24,34.55-83.54,34.55-94.24S195,32.43,169.91,32.43Z"/><path class="cls-2" d="M71.12,74.52c-17.75,17.75-16.87,32-9.3,39.55s82.18,51.09,91.06,42.21-34.65-83.5-42.21-91.06S88.86,56.77,71.12,74.52Z"/><path class="cls-2" d="M31,174.14c0,25.1,10.69,34.55,21.39,34.55s94.24-22,94.24-34.55S63.1,139.59,52.41,139.59,31,149,31,174.14Z"/><path class="cls-2" d="M73.11,272.93c17.75,17.75,32,16.87,39.55,9.3s51.09-82.18,42.21-91.06-83.5,34.65-91.06,42.21S55.36,255.19,73.11,272.93Z"/><path class="cls-2" d="M172.73,313c25.1,0,34.55-10.69,34.55-21.39s-22-94.24-34.55-94.24S138.18,281,138.18,291.64,147.63,313,172.73,313Z"/><path class="cls-2" d="M271.52,270.94c17.75-17.75,16.87-32,9.3-39.55s-82.18-51.09-91.06-42.21,34.65,83.5,42.21,91.06S253.78,288.69,271.52,270.94Z"/></g></g></svg>