<?xml version="1.0" encoding="utf-8"?>
<!-- Generator: Adobe Illustrator 21.0.0, SVG Export Plug-In . SVG Version: 6.00 Build 0)  -->
<svg version="1.1" id="Layer_1" xmlns="http://www.w3.org/2000/svg" xmlns:xlink="http://www.w3.org/1999/xlink" x="0px" y="0px"
	 viewBox="0 0 44.1 170.5" style="enable-background:new 0 0 44.1 170.5;" xml:space="preserve">
<style type="text/css">
	.st0{fill:#63321C;stroke:#000000;stroke-width:0.4489;stroke-miterlimit:10;}
	.st1{fill:#F5F5F5;stroke:#000000;stroke-width:0.634;stroke-miterlimit:10;}
	.st2{fill:#D1D3D4;stroke:#000000;stroke-width:0.4489;stroke-miterlimit:10;}
	.st3{fill:#99261E;stroke:#000000;stroke-width:0.5137;stroke-miterlimit:10;}
	.st4{fill:#D1D3D4;stroke:#000000;stroke-width:0.4581;stroke-miterlimit:10;}
	.st5{font-family:'NuevaStd-Bold';}
	.st6{font-size:21.7149px;}
</style>
<title>rum</title>
<g id="Layer_2">
	<g id="Layer_1-2">
		<path class="st0" d="M43.3,59.6c-1.5-3.4-8.6-9.4-11-13.5c-1.9-3.4-0.9-31-2.4-31c-1.5,0-12.9,0-14.4,0s0.1,25.3-3.3,31
			c-3.4,5.8-8.7,9.5-10.3,13c-2.4,5.3-1.2,104.7,0.7,106.6c1.9,1.9,6.2,4.6,19.2,4.6c12.7,0,17.7-2.5,19.4-4.2S44.8,63,43.3,59.6z"
			/>
		<path class="st1" d="M15.6,14.7c0,0,0.5-1-0.7-1.4c-1.2-0.3-1.4-2.1,0.3-2.1h14.9c1.9,0,1.5,2,0.1,2.1c-1.4,0.2-0.5,1.4-0.5,1.4
			L15.6,14.7z"/>
		<path class="st2" d="M15,11.2V3.3c0,0,4.8-0.5,7.9-0.5s7.5,0.5,7.5,0.5v7.9H15z"/>
		<path class="st3" d="M15,3.3c0,0-1,0-1-1.2s1.4-1.9,8.9-1.9s8.6,0.7,8.6,1.9s-1,1.2-1,1.2c-2.6-0.4-5.1-0.5-7.7-0.5
			C20.1,2.8,17.6,3,15,3.3z"/>
		<path class="st2" d="M14.3,33.3c0,0,2.2-0.7,8.4-0.7s8.2,1,8.2,1s0.3-17.1-1.2-18.9H15.3C15.3,14.8,14.5,18.3,14.3,33.3z"/>
		<polygon class="st2" points="42.9,123.3 1.1,123.3 1.1,76 43.6,76 		"/>
		<polygon class="st4" points="42.4,149.4 0.7,149.4 0.2,135.1 42.8,135.1 		"/>
		<circle class="st3" cx="22.3" cy="75.9" r="10.1"/>
		<text transform="matrix(0.89 0 0 1 1.8211 105.3093)" class="st5 st6">R</text>
		<text transform="matrix(0.89 0 0 1 13.3777 105.3093)" class="st5 st6">UM</text>
	</g>
</g>
</svg>
