<svg xmlns="http://www.w3.org/2000/svg" viewBox="0 0 226.87 682.6"><defs><style>.cls-1{fill:#6f4b2c;}.cls-1,.cls-2,.cls-3,.cls-4,.cls-5{stroke:#000;stroke-miterlimit:10;}.cls-1,.cls-2,.cls-4,.cls-5{stroke-width:3.2px;}.cls-2{fill:#a08663;}.cls-3{fill:#f5f5f5;stroke-width:2.74px;}.cls-4,.cls-6{fill:#d1d3d4;}.cls-5{fill:#eac25c;}.cls-6{font-size:84.74px;font-family:AvenirNextCondensed-Regular, Avenir Next Condensed;}.cls-7{letter-spacing:-0.01em;}.cls-8{letter-spacing:-0.03em;}</style></defs><title>scoth</title><g id="Layer_2" data-name="Layer 2"><g id="Layer_1-2" data-name="Layer 1"><path class="cls-1" d="M77.2,7c0-4.26,28.77-5.33,35.17-5.33S146.47,2.7,146.47,7s-.53,22.91-.53,26.11S76.67,37.33,76.67,32,77.2,7,77.2,7Z"/><path class="cls-2" d="M76.67,32V94.88c0,4.26,69.27,4.26,69.27,0V33.07s-.19,2.81-33.67,2.81S76.67,32,76.67,32Z"/><path class="cls-3" d="M113,98.25c7.36,0,26.28-1,29.61-1.67.13,4.69-1,28,8.66,47.32,11.4,22.81,17.56,53.61,14.92,62.87H61.75c-4.25.72-.69-42.43,9.2-61.33,8.63-16.49,8.59-31.89,8.75-49.22C79.87,95.94,85.39,98.25,113,98.25Z"/><path class="cls-4" d="M111.54,1.6c6.69,0,15.21.57,15.21.57V120.45H99L98.62,2.13S104.85,1.6,111.54,1.6Z"/><path class="cls-5" d="M61.75,206.77s-4.26,6.39-2.13,26.64,3.2,32-1.07,39.43S49,286.7,33,296.29,3.14,326.13,2.07,337.85s0,44.76,0,44.76H224.8s1.07-32,0-40.5-3.2-24.51-21.31-38.36-33-21.31-36.23-30.9-.09-35.25,1.07-43.69-.64-22.41-2.13-22.38Z"/><path class="cls-5" d="M8.47,592.55l1.07,70.33S9.53,681,114,681,221.6,663.95,221.6,663.95l1.07-71.4S209.88,600,115,600,8.47,592.55,8.47,592.55Z"/><path class="cls-2" d="M2.07,382.61,8.47,592.55S22.32,600,115,600s107.63-7.46,107.63-7.46l2.13-209.94Z"/><text class="cls-6" transform="translate(6.87 465.62) scale(0.9 1)">S<tspan class="cls-7" x="36.78" y="0">C</tspan><tspan class="cls-8" x="76.35" y="0">O</tspan><tspan class="cls-7" x="122.1" y="0">T</tspan><tspan x="150.07" y="0">CH</tspan></text><path d="M20.41,512.57c9.86-14.81,28-20.91,45.17-19.47,10.37.87,20.46,4.22,29.79,8.73,7.36,3.56,14.29,8.26,22.25,10.45,7.8,2.15,16.25,2.08,24.29,2A159.22,159.22,0,0,0,167,512c16.25-2.81,31.88-8.7,45.16-18.6,1.63-1.22,0-4-1.61-2.76-14.76,11-32.35,16.9-50.5,19.18A168.8,168.8,0,0,1,133.67,511a61.92,61.92,0,0,1-28.94-7.87c-15.67-8.4-32.84-15.1-51-13.09-14.42,1.6-28,8.72-36.11,20.93-1.14,1.72,1.62,3.32,2.76,1.61Z"/><path d="M90.89,511.54a190.18,190.18,0,0,1,21.47-27.22c1.42-1.49-.84-3.76-2.26-2.26a194.74,194.74,0,0,0-22,27.87c-1.13,1.73,1.64,3.33,2.76,1.61Z"/><path d="M106.27,524.72A94.81,94.81,0,0,1,125.4,498c1.47-1.44-.79-3.7-2.26-2.26a97.3,97.3,0,0,0-19.63,27.4c-.89,1.85,1.87,3.47,2.76,1.61Z"/></g></g></svg>