<svg xmlns="http://www.w3.org/2000/svg" xmlns:xlink="http://www.w3.org/1999/xlink" viewBox="0 0 123.41 123.41"><defs><style>.cls-1,.cls-2{stroke:#000;stroke-miterlimit:10;}.cls-1{stroke-width:1.48px;fill:url(#radial-gradient);}.cls-2{fill:#add24d;stroke-width:1.39px;}</style><radialGradient id="radial-gradient" cx="61.7" cy="61.7" r="60.83" gradientUnits="userSpaceOnUse"><stop offset="0" stop-color="#fff"/><stop offset="0.87" stop-color="#ffffe7"/><stop offset="1" stop-color="#9bbe4d"/></radialGradient></defs><title>settingsicon</title><g id="Layer_2" data-name="Layer 2"><g id="Layer_1-2" data-name="Layer 1"><path class="cls-1" d="M122.53,49.73a61.64,61.64,0,0,0-9.35-22.57A12.1,12.1,0,0,1,96.25,10.22,61.64,61.64,0,0,0,73.68.87a12.1,12.1,0,0,1-12,10.35A12.1,12.1,0,0,1,49.73.87a61.64,61.64,0,0,0-22.57,9.35A12.1,12.1,0,0,1,10.22,27.16,61.64,61.64,0,0,0,.87,49.73a12.1,12.1,0,0,1,10.35,12,12.1,12.1,0,0,1-10.35,12,61.64,61.64,0,0,0,9.35,22.57,12.1,12.1,0,0,1,16.93,16.93,61.64,61.64,0,0,0,22.57,9.35,12.1,12.1,0,0,1,24,0,61.64,61.64,0,0,0,22.57-9.35,12.1,12.1,0,0,1,16.93-16.93,61.64,61.64,0,0,0,9.35-22.57,12.1,12.1,0,0,1,0-24Z"/><path class="cls-2" d="M79.65,15.12c-8.25-3.31-12.76-1-14.17,2.48s-5.19,33.86-1.06,35.52S86.77,30.21,88.18,26.7,87.89,18.43,79.65,15.12Z"/><path class="cls-2" d="M41.64,15.94c-8.17,3.49-9.76,8.29-8.27,11.77S53.65,55.32,57.74,53.57s-.38-32-1.87-35.48S49.81,12.44,41.64,15.94Z"/><path class="cls-2" d="M15.34,43.39c-3.31,8.25-1,12.76,2.48,14.17s33.86,5.19,35.52,1.06S30.44,36.26,26.92,34.85,18.65,35.14,15.34,43.39Z"/><path class="cls-2" d="M16.16,81.39c3.49,8.17,8.29,9.76,11.77,8.27S55.54,69.39,53.79,65.3s-32,.38-35.48,1.87S12.67,73.22,16.16,81.39Z"/><path class="cls-2" d="M43.61,107.69c8.25,3.31,12.76,1,14.17-2.48S63,71.36,58.84,69.7,36.48,92.6,35.08,96.11,35.36,104.39,43.61,107.69Z"/><path class="cls-2" d="M81.62,106.88c8.17-3.49,9.76-8.29,8.27-11.77S69.61,67.49,65.52,69.24s.38,32,1.87,35.48S73.45,110.37,81.62,106.88Z"/><path class="cls-2" d="M107.91,79.43c3.31-8.25,1-12.76-2.48-14.17s-33.86-5.19-35.52-1.06S92.82,86.55,96.34,88,104.61,87.67,107.91,79.43Z"/><path class="cls-2" d="M107.1,41.42c-3.49-8.17-8.29-9.76-11.77-8.27S67.72,53.42,69.46,57.51s32-.38,35.48-1.87S110.59,49.59,107.1,41.42Z"/></g></g></svg>