<svg xmlns="http://www.w3.org/2000/svg" xmlns:xlink="http://www.w3.org/1999/xlink" viewBox="0 0 281.06 534.5"><defs><style>.cls-1,.cls-2,.cls-3,.cls-4,.cls-5,.cls-6,.cls-7{stroke:#000;stroke-miterlimit:10;}.cls-1,.cls-2,.cls-3,.cls-4{stroke-width:3px;}.cls-1{fill:url(#linear-gradient);}.cls-2{fill:#b9b7b8;}.cls-3{fill:#7a7a7a;}.cls-4{fill:#919191;}.cls-5{fill:#d1d1d1;}.cls-5,.cls-6{stroke-width:3.85px;}.cls-6{fill:#c33;}.cls-7{fill:#fcce08;stroke-width:3.98px;}.cls-8{fill:#fff;}</style><linearGradient id="linear-gradient" x1="140.14" y1="505.76" x2="141.16" y2="176.24" gradientUnits="userSpaceOnUse"><stop offset="0"/><stop offset="0.24" stop-color="#030303"/><stop offset="0.38" stop-color="#0b0b0b"/><stop offset="0.5" stop-color="#1a1a1a"/><stop offset="0.61" stop-color="#2e2e2e"/><stop offset="0.71" stop-color="#494949"/><stop offset="0.8" stop-color="#696969"/><stop offset="0.89" stop-color="#909090"/><stop offset="0.97" stop-color="#bcbcbc"/><stop offset="1" stop-color="#d1d1d1"/></linearGradient></defs><title>sodawater</title><g id="Layer_2" data-name="Layer 2"><g id="Layer_1-2" data-name="Layer 1"><path class="cls-1" d="M28.06,44.5s0,6-6,17-17,20-19,39S1.56,470,1.56,470s9,46,142,46,136-46,136-46V99c0-9-18-34-22-42s-3-14-3-14-1,21-114,21S28.06,44.5,28.06,44.5Z"/><path class="cls-2" d="M140.28,64.5c123.27,0,130.4-27.62,110-45.29s-96.78-17.67-111-17.67S47.07-.13,29.23,19.21C14,35.78,11.92,64.5,140.28,64.5Z"/><path class="cls-3" d="M146.06,49.5c26,0,99,1,101.5-16.5,2-14-69-20.64-109-22-59-2-124.56,9.48-101,25C57,48.83,86.06,49.5,146.06,49.5Z"/><path class="cls-4" d="M43.18,38.44s-9.37-4.17-10.37-8.25C31.41,24.43,45,19.92,54.56,18c10-2,47.45-9,84-7,36.81,2,52.49,3.79,68,6,14.28,2,35.91,6.26,40,13s-4.82,10.07-4.82,10.07-26.64-12.54-86.91-12.8S53.81,29.89,43.18,38.44Z"/><path class="cls-2" d="M154.35,26.82c-17-5.74-61.87-9.7-73.43-8.2S61.44,25.78,68.84,32.11c5.77,4.94,52.09,14.28,78.08,11.4S171.35,32.56,154.35,26.82ZM93.75,30c-5.74-.25-15.91-1.47-15.82-3.47s7.95-3.86,15.6-3.53,16.1,1.9,16,3.9S99.49,30.29,93.75,30ZM132,36.85c-20.13.13-16.69-5.89-13.09-7.58,3.91-1.83,13.56-3.41,23,0S152.09,36.73,132,36.85Z"/><path class="cls-3" d="M8.56,482s35,51,134,51,127.1-46.13,127.1-46.13S245.56,518,143.56,516,28.56,497,8.56,482Z"/><path class="cls-5" d="M48.56,470.5s-2.28-37.56,20.54-59.23,81-52,98.12-62.12,62-39.72,78.72-67.9c15.64-26.3,25.54-62.44,24-108.35-1.4-40.51-13.69-78-22.82-93.9,0,0,8,34.67-13.69,53.45s-47.92,27.45-47.92,27.45-10.27-59.23-55.9-50.56-39.93,78-39.93,78S29.16,201.8,17.75,248s-11.41,93.9-6.85,127.13S32.58,451.72,48.56,470.5Z"/><ellipse class="cls-6" cx="139.83" cy="174.35" rx="35.37" ry="44.78"/><path class="cls-7" d="M31.44,417.5S10.91,309.64,34.87,274.2,109,220.28,109,220.28c0-1.13,17.1,23.86,45.64,10.79,29.09-13.33,30.8-44.68,30.8-44.68s35.37-16.95,43.35-23.11,20.54-26.19,22.82-47.77c0,0,5.7,53.93,2.28,75.5s-10.27,58.55-54.76,89.37S96.47,343.54,75.94,355.87,28,389.77,31.44,417.5Z"/><path class="cls-8" d="M42.7,324.85c5.79-2.09,8.65-3.17,14.34-5.44A9.38,9.38,0,0,0,61,322.79a10.64,10.64,0,0,0,7.87-.16,8.56,8.56,0,0,0,4.43-3,3.18,3.18,0,0,0,.39-3.32,4.1,4.1,0,0,0-3-1.93c-1.49-.34-4.43-.07-8.82.7-7.19,1.26-12.75,1.3-16.52.35s-6.39-2.91-7.79-5.82a8.26,8.26,0,0,1-.41-6.12,12.78,12.78,0,0,1,4.61-6.14c2.42-1.94,6.14-3.77,11.11-5.58,6.1-2.22,11.14-3.16,15.21-2.68a14.07,14.07,0,0,1,10,6c-5.36,2.55-8.07,3.78-13.54,6.16a7.16,7.16,0,0,0-4.19-2.75,10.42,10.42,0,0,0-5.51.68,7,7,0,0,0-3.5,2.24,2.36,2.36,0,0,0-.3,2.52A2.63,2.63,0,0,0,53,305.16a16.92,16.92,0,0,0,5.72-.43c7.06-1.31,12.28-2,15.64-2.07a17.73,17.73,0,0,1,8.23,1.58,10.86,10.86,0,0,1,4.78,4.63,10.38,10.38,0,0,1,.89,7.58,14.63,14.63,0,0,1-4.86,7.46A35,35,0,0,1,72.27,330c-8.45,3.08-15,3.79-19.5,2.41A17.32,17.32,0,0,1,42.7,324.85Z"/><path class="cls-8" d="M89.45,300.12c-3.21-6-3.57-11.55-1.2-16.78s7.22-9.6,14.49-13.32c7.45-3.81,14-5.34,19.84-4.39s10.5,4.23,14,10c2.51,4.17,3.7,8.1,3.55,11.8a19,19,0,0,1-4,10.63c-2.51,3.38-6.33,6.44-11.49,9.09a38.65,38.65,0,0,1-14.23,4.53,22.11,22.11,0,0,1-11.92-2.29A21,21,0,0,1,89.45,300.12Zm14.46-6.6c2,3.67,4.38,5.89,7,6.63a11.36,11.36,0,0,0,8.45-1.16c3.06-1.57,5-3.6,5.72-6s-.05-5.68-2.4-9.71c-2-3.39-4.27-5.39-6.87-6a11.65,11.65,0,0,0-8.3,1.29,10.3,10.3,0,0,0-5.46,5.81C101.24,286.75,101.85,289.82,103.91,293.52Z"/><path class="cls-8" d="M133.29,253.6c7.84-4.85,11.7-7.38,19.28-12.65a35,35,0,0,1,9.83-5.13,17.34,17.34,0,0,1,8-.51,16.09,16.09,0,0,1,6.91,3.09,24.93,24.93,0,0,1,5.5,5.91q3.73,5.52,4.29,9.73a18.78,18.78,0,0,1-.77,8.31,19.25,19.25,0,0,1-4,7.08,43,43,0,0,1-7.22,6.53c-7.88,5.47-11.89,8.1-20,13.14Zm18.1-.43,12.18,19.21,3.25-2.2a19.52,19.52,0,0,0,5.38-4.82,7,7,0,0,0,1-4.54q-.24-2.56-3-6.75-3.62-5.54-7.1-6c-2.32-.34-5.13.65-8.49,2.94Z"/><path class="cls-8" d="M219.35,231.75c-5.43,5-8.19,7.43-13.79,12.17.79,2.91,1.19,4.36,2,7.27-5.09,4.26-7.67,6.35-12.89,10.41-2.59-15.53-5.4-31-8.52-46.45,5.21-4.42,7.77-6.69,12.83-11.33q19.23,10.17,38.74,19.75c-4.87,4.87-7.35,7.26-12.37,11.92Zm-7.73-5c-5.19-3.29-7.78-5-12.94-8.31,1.78,6.34,2.66,9.52,4.38,15.87C206.51,231.33,208.23,229.81,211.62,226.74Z"/></g></g></svg>