<svg xmlns="http://www.w3.org/2000/svg" xmlns:xlink="http://www.w3.org/1999/xlink" viewBox="0 0 281.06 534.5"><defs><style>.cls-1,.cls-2,.cls-3,.cls-4,.cls-5,.cls-6{stroke:#000;stroke-miterlimit:10;}.cls-1,.cls-2,.cls-3,.cls-4,.cls-6{stroke-width:3px;}.cls-1{fill:url(#linear-gradient);}.cls-2{fill:#b9b7b8;}.cls-3{fill:#7a7a7a;}.cls-4{fill:#919191;}.cls-5{fill:#396;stroke-width:2.86px;}.cls-6{fill:#fcce08;}.cls-7{font-size:109.92px;fill:#fff;font-family:BirchStd, Birch Std;}</style><linearGradient id="linear-gradient" x1="138.61" y1="510.59" x2="143.46" y2="69.63" gradientUnits="userSpaceOnUse"><stop offset="0" stop-color="#396"/><stop offset="1" stop-color="#369"/></linearGradient></defs><title>sprite</title><g id="Layer_2" data-name="Layer 2"><g id="Layer_1-2" data-name="Layer 1"><path class="cls-1" d="M28.06,44.5s0,6-6,17-17,20-19,39S1.56,470,1.56,470s9,46,142,46,136-46,136-46V99c0-9-18-34-22-42s-3-14-3-14-1,21-114,21S28.06,44.5,28.06,44.5Z"/><path class="cls-2" d="M140.28,64.5c123.27,0,130.4-27.62,110-45.29s-96.78-17.67-111-17.67S47.07-.13,29.23,19.21C14,35.78,11.92,64.5,140.28,64.5Z"/><path class="cls-3" d="M146.06,49.5c26,0,99,1,101.5-16.5,2-14-69-20.64-109-22-59-2-124.56,9.48-101,25C57,48.83,86.06,49.5,146.06,49.5Z"/><path class="cls-4" d="M43.18,38.44s-9.37-4.17-10.37-8.25C31.41,24.43,45,19.92,54.56,18c10-2,47.45-9,84-7,36.81,2,52.49,3.79,68,6,14.28,2,35.91,6.26,40,13s-4.82,10.07-4.82,10.07-26.64-12.54-86.91-12.8S53.81,29.89,43.18,38.44Z"/><path class="cls-2" d="M154.35,26.82c-17-5.74-61.87-9.7-73.43-8.2S61.44,25.78,68.84,32.11c5.77,4.94,52.09,14.28,78.08,11.4S171.35,32.56,154.35,26.82ZM93.75,30c-5.74-.25-15.91-1.47-15.82-3.47s7.95-3.86,15.6-3.53,16.1,1.9,16,3.9S99.49,30.29,93.75,30ZM132,36.85c-20.13.13-16.69-5.89-13.09-7.58,3.91-1.83,13.56-3.41,23,0S152.09,36.73,132,36.85Z"/><path class="cls-3" d="M8.56,482s35,51,134,51,127.1-46.13,127.1-46.13S245.56,518,143.56,516,28.56,497,8.56,482Z"/><path class="cls-5" d="M13.9,294.62S160.7,259.35,148.3,113.5c0,0,41.94,71.49,85.79,0,0,0-1.91,83.89,31.46,120.11,0,0-137.27,111.53-157.29,213.53,0,0-45.76-24.78-81,2.86C27.24,450,36.77,337.52,13.9,294.62Z"/><path class="cls-6" d="M24.11,286.87c3.09,6.77,10.72,4,10.72,4s35.51,19.36,65-13.37,21.55-63.18,21.55-63.18,6-7.93.43-12.05S110,204,110,204s-27.35-11.23-54.09,11.35-27.69,57.83-27.69,57.83S19.07,275.83,24.11,286.87Z"/><text class="cls-7" transform="translate(82.68 398.85) rotate(-46.58) scale(1.63 1)">Sprite</text></g></g></svg>