<svg xmlns="http://www.w3.org/2000/svg" viewBox="0 0 198.56 730.97"><defs><style>.cls-1{fill:#fc3;}.cls-1,.cls-2,.cls-3,.cls-4,.cls-5,.cls-6{stroke:#000;stroke-miterlimit:10;}.cls-1,.cls-2,.cls-3{stroke-width:2.22px;}.cls-2,.cls-4{fill:#eaad6c;}.cls-3,.cls-5,.cls-6{fill:#99261e;}.cls-4{stroke-width:2.78px;}.cls-5{stroke-width:2.31px;}.cls-6{stroke-width:2.74px;}.cls-7{font-size:77.04px;font-family:Athelas-Regular, Athelas;}.cls-8{letter-spacing:-0.02em;}.cls-9{letter-spacing:-0.02em;}</style></defs><title>tequila</title><g id="Layer_2" data-name="Layer 2"><g id="Layer_1-2" data-name="Layer 1"><path class="cls-1" d="M190.94,257.46c-6.67-14.82-37.15-40.69-47.42-58.53-8.4-14.6-3.71-134.12-10.37-134.1s-55.57,0-62.24,0,.48,109.36-14.08,134.1C42,224.12,19.12,240.1,12.39,255.24,2.2,278.12,4.71,668.65,6.46,667.18c0,0-10.37,45.94-2.22,54.09s39.27,7.41,95.58,8.15,86.68,1.48,94.09-5.93,1.48-48.16-2.22-55.57C193.67,662.77,197.61,272.28,190.94,257.46Z"/><path class="cls-2" d="M71.29,63.72s2.22-4.45-3-5.93S62.4,48.9,69.8,48.9h64.46c8.15,0,6.3,8.52.37,9.26s-2.22,5.93-2.22,5.93Z"/><path class="cls-2" d="M68.69,48.53V14.45s20.75-2.22,34.08-2.22,32.6,2.22,32.6,2.22V48.53Z"/><path class="cls-3" d="M68.69,14.45s-4.45,0-4.45-5.19,5.93-8.15,38.53-8.15,37,3,37,8.15-4.45,5.19-4.45,5.19A223.93,223.93,0,0,0,102,12.22,223.93,223.93,0,0,0,68.69,14.45Z"/><path class="cls-2" d="M65.73,144.1s9.63-3,36.3-3,35.56,4.45,35.56,4.45,1.48-74.09-5.19-81.5H70.18S66.47,78.91,65.73,144.1Z"/><path class="cls-3" d="M68.69,48.53v-20s14.08-5.19,34.82-5.19S135.37,27,135.37,27V48.53Z"/><rect class="cls-4" x="6.46" y="348.22" width="187.45" height="17.41"/><rect class="cls-2" x="4.98" y="487.88" width="188.19" height="20"/><rect class="cls-5" x="6.46" y="370.28" width="187.45" height="6.41"/><rect class="cls-3" x="4.98" y="476.03" width="188.93" height="7.41"/><path class="cls-6" d="M103.45,262.36c34.36,1,73.65,18.08,73.65,18.08l-24.55-46.81S128,219.81,101.48,218.75s-52,12.77-52,12.77L22.93,278.32S67.11,261.3,103.45,262.36Z"/><polygon class="cls-2" points="192.42 647.17 5.72 647.17 4.98 587.16 193.16 587.16 192.42 647.17"/><circle class="cls-3" cx="54.62" cy="616.8" r="35.56"/><text class="cls-7" transform="translate(9.05 450.31) scale(0.54 1)">T<tspan class="cls-8" x="49.84" y="0">E</tspan><tspan class="cls-9" x="94.91" y="0">Q</tspan><tspan x="150.69" y="0">UILA</tspan></text></g></g></svg>