<svg xmlns="http://www.w3.org/2000/svg" viewBox="0 0 249.07 473.66"><defs><style>.cls-1{fill:#fcce08;}.cls-1,.cls-2,.cls-3,.cls-4,.cls-5,.cls-6{stroke:#000;stroke-miterlimit:10;}.cls-1,.cls-2,.cls-3,.cls-4{stroke-width:2.66px;}.cls-2{fill:#b9b7b8;}.cls-3{fill:#7a7a7a;}.cls-4{fill:#919191;}.cls-5{fill:#fcfcfc;stroke-width:2.39px;}.cls-6{fill:#c33;stroke-width:2.51px;}.cls-7{font-size:57.6px;font-family:BirchStd, Birch Std;}</style></defs><title>tonic</title><g id="Layer_2" data-name="Layer 2"><g id="Layer_1-2" data-name="Layer 1"><path class="cls-1" d="M24.86,39.44s0,5.32-5.32,15.07S4.48,72.22,2.71,89.06,1.38,416.51,1.38,416.51s8,40.76,125.84,40.76,120.52-40.76,120.52-40.76V87.73c0-8-16-30.13-19.5-37.22s-2.66-12.41-2.66-12.41-.89,18.61-101,18.61S24.86,39.44,24.86,39.44Z"/><path class="cls-2" d="M124.31,57.16c109.24,0,115.56-24.47,97.5-40.14S136,1.36,123.41,1.36,41.71-.11,25.91,17C12.36,31.71,10.56,57.16,124.31,57.16Z"/><path class="cls-3" d="M129.43,43.87c23,0,87.73.89,89.95-14.62,1.77-12.41-61.17-18.3-96.59-19.5C70.5,8,12.4,18.15,33.28,31.9,50.54,43.27,76.26,43.87,129.43,43.87Z"/><path class="cls-4" d="M38.27,34.07s-8.3-3.69-9.19-7.31c-1.25-5.1,10.75-9.1,19.26-10.81,8.86-1.77,42.05-8,74.44-6.2C155.4,11.53,169.3,13.1,183,15.07c12.66,1.81,31.83,5.55,35.45,11.52s-4.27,8.92-4.27,8.92-23.6-11.11-77-11.35S47.69,26.48,38.27,34.07Z"/><path class="cls-2" d="M136.79,23.77C121.72,18.68,82,15.17,71.71,16.5S54.45,22.85,61,28.45c5.12,4.38,46.16,12.65,69.2,10.11S151.85,28.86,136.79,23.77ZM83.08,26.62c-5.09-.22-14.09-1.3-14-3.07s7-3.42,13.82-3.13,14.26,1.69,14.19,3.46S88.16,26.84,83.08,26.62Zm33.87,6c-17.84.11-14.79-5.22-11.6-6.71,3.47-1.62,12-3,20.38,0S134.78,32.55,116.94,32.66Z"/><path class="cls-3" d="M7.58,427.14s31,45.2,118.75,45.2S239,431.45,239,431.45,217.61,459,127.22,457.27,25.31,440.43,7.58,427.14Z"/><path class="cls-5" d="M13.82,253s1.67-6.69,10.87-10,194.77-62.69,201.46-69.38,8.36-17.55,7.52-23.41a24.81,24.81,0,0,1-10.87,9.2c-7.52,3.34-198.95,64.37-204.8,69.38S13.82,253,13.82,253Z"/><path class="cls-5" d="M15.5,349.16s1.67-6.69,10.87-10,194.77-62.69,201.46-69.38,8.36-17.55,7.52-23.41a24.81,24.81,0,0,1-10.87,9.2C217,258.88,25.53,319.9,19.68,324.91S15.5,349.16,15.5,349.16Z"/><circle class="cls-6" cx="116.29" cy="192.34" r="30.93"/><text class="cls-7" transform="translate(17.51 307.83) rotate(-18.11) scale(2.74 1)">TONIC</text></g></g></svg>