<svg xmlns="http://www.w3.org/2000/svg" viewBox="0 0 282.97 683.95"><defs><style>.cls-1{fill:#f5f5f5;}.cls-1,.cls-2,.cls-3,.cls-4,.cls-5,.cls-6,.cls-8,.cls-9{stroke:#000;stroke-miterlimit:10;}.cls-1,.cls-2,.cls-3,.cls-5,.cls-6,.cls-8,.cls-9{stroke-width:2.74px;}.cls-2{fill:#dbdad6;}.cls-3{fill:#b84d47;}.cls-4,.cls-6{fill:#ad3634;}.cls-4{stroke-width:3.63px;}.cls-5{fill:#a5332e;}.cls-7{fill:#fff;}.cls-8{fill:#ffc22e;}.cls-9{fill:#f9d16e;}</style></defs><title>vodka</title><g id="Layer_2" data-name="Layer 2"><g id="Layer_1-2" data-name="Layer 1"><path class="cls-1" d="M14.57,230.55C4.64,244.82-2.78,609.33,4,634.39S16.49,671,24.21,673.91s85.78,8.67,118.55,8.67,98.31-2.89,111.8-8.67,17.35-31.81,18.31-47.23,13.49-372,6.75-389.38-36.63-27-50.12-36.63-31.81-20.24-32.77-30.84,2.89-80-1-83.85S189,83.09,189,70.56c-8.67,0-70.36-1-79,0,0,4.82,0,9.64-1.93,10.6s-6.75,2.89-6.75,14.46-1,52-1.93,67.47-1,20.24-28,31.81S30,208.39,14.57,230.55Z"/><path class="cls-2" d="M99.87,71.56c-4-1.16,0-9,13.49-9s68.48-1.33,80,2.24c14.46,4.49,4.82,7.86,1.93,7.86C191.43,72.68,103.72,72.68,99.87,71.56Z"/><path class="cls-3" d="M101.79,38.27c-2.11.43-2.89,5.78,0,6.75s92.64,5,95.48,2.49,3.8-6.34,1.87-8.27S149,28.63,101.79,38.27Z"/><path class="cls-4" d="M100.83,95.14c2.89-1,56.95-3.86,96.42,0,0,6.75-.63,63.1-.63,63.1s-47.07-2.44-97,0C99.87,151,100.83,95.14,100.83,95.14Z"/><path class="cls-5" d="M101.79,38.27c-1-8.67,0-30.84,1-33.73s80-5.78,95.42,1c0,8.67,1,31.81,1,33.73S166.37,30.56,101.79,38.27Z"/><path class="cls-5" d="M100.83,63.33c-1.75-1.25-2.89-16.38,1-17.35s94.45-1,96.38,1.93,1.93,14.46,0,16.38A6.43,6.43,0,0,1,191.55,66C189.5,65.26,107.58,68.15,100.83,63.33Z"/><path class="cls-6" d="M149.12,367.63c21.83,1.15,79.09,4.09,98.18,13.64,0,24.54-4.09,145.9-9.54,151.35S145,573.52,139.58,573.52,41.4,531.25,38.67,525.8s-1.36-143.17,0-148.63S123.21,366.26,149.12,367.63Z"/><path class="cls-6" d="M35.35,353.24V297.68s102.72-39.35,216.74,6.94v48.61S129.85,318.52,35.35,353.24Z"/><path class="cls-7" d="M45.69,311.61a11.42,11.42,0,0,1,.88-1.66,15,15,0,0,1,1-1.46,3.28,3.28,0,0,1,.73-.74q.73-.37,1,.81a5.58,5.58,0,0,0,1.61,2.38c1,1,2.15,2.09,3.55,3.31s2.93,2.51,4.57,3.89,3.21,2.73,4.72,4.07,2.87,2.59,4.08,3.74a29.9,29.9,0,0,1,2.69,2.84A21.9,21.9,0,0,0,71.82,326q.75-1.86,1.59-4.24T75,316.6q.81-2.77,1.45-5.57t1-5.44a28.49,28.49,0,0,0,.32-4.83,3.15,3.15,0,0,1,.15-1.32.82.82,0,0,1,.52-.42,2.18,2.18,0,0,1,.9,0,6.82,6.82,0,0,1,1.2.31,4.51,4.51,0,0,1,1.07.53,1,1,0,0,1,.49.67,8.37,8.37,0,0,1-.38,2.12q-.43,1.66-1.19,4.07t-1.72,5.35q-1,2.94-2,6t-2,5.9q-1,2.87-1.79,5.11t-1.43,3.66q-.61,1.43-.88,1.53a.78.78,0,0,1-.42,0,2.91,2.91,0,0,1-.53-.16,1.39,1.39,0,0,1-.47-.3.74.74,0,0,1-.23-.42,1.58,1.58,0,0,0-.16-.51,4.3,4.3,0,0,0-.38-.57c-.18-.23-.42-.52-.75-.88l-1.25-1.36c-2.65-2.78-5-5.05-7.14-6.86s-3.93-3.27-5.5-4.41-2.89-2-4-2.66-1.95-1.14-2.61-1.51A12.58,12.58,0,0,1,46,313.7a1.38,1.38,0,0,1-.56-.81A2.36,2.36,0,0,1,45.69,311.61Z"/><path class="cls-7" d="M89.31,310.23a13.44,13.44,0,0,1,6.17-9.28,15.6,15.6,0,0,1,6.77-2.21,12.23,12.23,0,0,1,4.56.32,9.44,9.44,0,0,1,3.9,2.12,11.55,11.55,0,0,1,2.81,4,18,18,0,0,1,1.32,6.05,15,15,0,0,1-.76,6.08,13.6,13.6,0,0,1-6.75,7.73,14.45,14.45,0,0,1-4.85,1.47,11.56,11.56,0,0,1-4.18-.29,11.32,11.32,0,0,1-4-1.89A12.6,12.6,0,0,1,91,320.81a13.63,13.63,0,0,1-1.83-5.37A17.3,17.3,0,0,1,89.31,310.23Zm4.6,6.36a11.65,11.65,0,0,0,1.85,3.23,10.17,10.17,0,0,0,3.15,2.6,7.69,7.69,0,0,0,4.66.72,10,10,0,0,0,2.55-.7,7.54,7.54,0,0,0,2.6-1.81,8.89,8.89,0,0,0,1.92-3.3,12.75,12.75,0,0,0,.49-5.12,16.21,16.21,0,0,0-1.15-5.26,9.37,9.37,0,0,0-2.25-3.27,7.08,7.08,0,0,0-3-1.61,9.46,9.46,0,0,0-7.33,1.17A9.17,9.17,0,0,0,94.69,306a10.46,10.46,0,0,0-1.42,3.73,13.82,13.82,0,0,0-.1,4.27A13.09,13.09,0,0,0,93.91,316.58Z"/><path class="cls-7" d="M132.49,326.12l-1-.11-3.06-.28a5,5,0,0,1-1.35-.24.61.61,0,0,1-.43-.58.84.84,0,0,1,.23-.65l.53-.56a3.38,3.38,0,0,0,.55-.89,4.29,4.29,0,0,0,.29-1.6q.08-3.09.11-6.33t0-6q0-1.13-.15-2.44t-.3-2.59q-.18-1.28-.39-2.38c-.14-.73-.27-1.34-.4-1.81a.64.64,0,0,0-.52-.52l-.77-.1a3,3,0,0,1-.71-.15c-.22-.08-.34-.3-.35-.68a1.1,1.1,0,0,1,.41-1,8.45,8.45,0,0,1,2-.76c1.65-.47,2.48-.69,4.14-1.14q1.3-.33,2.11-.47a8.33,8.33,0,0,1,1.22-.14l1.43.09a19.76,19.76,0,0,1,3,.51,25.35,25.35,0,0,1,3.76,1.25,13.23,13.23,0,0,1,3.65,2.27,11.21,11.21,0,0,1,2.69,3.56,10.49,10.49,0,0,1,.93,5q-.1,2.67-.34,4.69a21.32,21.32,0,0,1-.72,3.6,14.74,14.74,0,0,1-1.18,2.86,16.82,16.82,0,0,1-1.74,2.54,7,7,0,0,1-1.72,1.42,17.58,17.58,0,0,1-2.39,1.21q-1.3.55-2.67,1t-2.54.77q-1.17.31-2,.5a5.26,5.26,0,0,1-2.26.13Zm-.47-9.29q0,1.87,0,3.47a4.33,4.33,0,0,0,.48,2.46,1.8,1.8,0,0,0,1.44.49,17.8,17.8,0,0,0,4.7-.64,8.24,8.24,0,0,0,3.69-2.22,11.36,11.36,0,0,0,2.51-4.42,25.27,25.27,0,0,0,1-7.22,10.37,10.37,0,0,0-1.15-5.43,11.7,11.7,0,0,0-6.39-5.43,8.89,8.89,0,0,0-2.54-.56,7.89,7.89,0,0,0-2.19.35,8.18,8.18,0,0,0-1.88.77L132,313Q132,315,132,316.83Z"/><path class="cls-7" d="M179.67,301.83a16.26,16.26,0,0,0,1.77-1.1,12.91,12.91,0,0,0,1-.82,4.82,4.82,0,0,1,.62-.5.8.8,0,0,1,.6-.1,1.51,1.51,0,0,1,.6.32q.35.27,1.06.77a1.81,1.81,0,0,1,.57,1,3,3,0,0,1,.18,1.17.57.57,0,0,1-.26.44,1.49,1.49,0,0,1-.78.13,4.71,4.71,0,0,0-1.36.33q-1,.35-2.35,1t-2.88,1.38q-1.53.77-2.94,1.55t-2.56,1.49q-1.15.71-1.72,1.14c.55.45,1.54,1.29,2.95,2.55s3,2.7,4.9,4.36,3.79,3.4,5.81,5.24,3.93,3.53,5.74,5.06a4.45,4.45,0,0,0,1,.62l1.07.49a5.13,5.13,0,0,1,.86.47.55.55,0,0,1,.3.54,1.5,1.5,0,0,1-.5.73,8.06,8.06,0,0,1-1,.83,8.28,8.28,0,0,1-1.17.67,1.5,1.5,0,0,1-.9.2,1.62,1.62,0,0,1-.82-.5L188.22,330c-3.43-3.77-6.46-6.84-9-9.26s-4.69-4.31-6.4-5.72a45.07,45.07,0,0,0-4-3,6.19,6.19,0,0,0-1.83-.94q-.09,1.27-.21,3.12l-.23,3.75q-.12,1.9-.22,3.58t-.17,2.59a1.43,1.43,0,0,1-.36.72,5.89,5.89,0,0,1-.78.8,5,5,0,0,1-.88.62,1.29,1.29,0,0,1-.67.21.51.51,0,0,1-.44-.43,7.26,7.26,0,0,1,0-1.87q0-.56.16-1.72t.25-2.81q.13-1.64.31-3.59t.31-4q.2-3,.26-6.12t0-6.15a1.67,1.67,0,0,0-.22-.84,3.54,3.54,0,0,0-.42-.55,5.22,5.22,0,0,0-.38-.37.37.37,0,0,1-.16-.3.6.6,0,0,1,.1-.35,1.68,1.68,0,0,1,.19-.19c.67-.45,1.2-.79,1.61-1l.93-.57a1.8,1.8,0,0,1,.47-.23.82.82,0,0,1,.26,0,1.3,1.3,0,0,1,.49.26,6,6,0,0,1,.69.59,5.32,5.32,0,0,1,.63.74,1.11,1.11,0,0,1,.25.69q-.05.71-.27,1.88t-.45,2.6q-.23,1.43-.47,3t-.35,3l1.18.6C172.83,305.86,175.08,304.48,179.67,301.83Z"/><path class="cls-7" d="M214.2,324.75a4.87,4.87,0,0,0-1.31-.16,1.56,1.56,0,0,0-.85.28,3,3,0,0,0-.7.8,13.75,13.75,0,0,1-1.24,1.58l-1.6,1.82q-.8.91-1.44,1.68a6,6,0,0,0-.85,1.19,2.78,2.78,0,0,1-.64,1,.94.94,0,0,1-.68.18l-1.29-.17-1.45-.2-1.25-.2-.65-.12a.46.46,0,0,1-.35-.37,1.26,1.26,0,0,1,0-.56,2.09,2.09,0,0,1,.31-.9.79.79,0,0,1,.58-.21,5.72,5.72,0,0,0,1.79-.36,3.76,3.76,0,0,0,1.76-1.57,12.28,12.28,0,0,1,1.32-1.56q1.14-1.23,2.78-3t3.58-3.75q1.94-2,3.68-4t3-3.68a8.77,8.77,0,0,0,1.53-2.87,1.25,1.25,0,0,0,0-.45l-.11-.69-.11-.69a1.26,1.26,0,0,1,0-.46q.06-.25.51-.45a5.55,5.55,0,0,1,1-.33,7,7,0,0,1,1.15-.16,2.84,2.84,0,0,1,.86.05q.35.1.92.93a5.59,5.59,0,0,1,.82,1.8q1.07,4.14,2.15,8.84c.72,3.14,1.68,6.68,2.84,10.63.73,2.49,1.35,4.49,1.88,6s1,2.67,1.3,3.48.59,1.38.75,1.69a1.09,1.09,0,0,1,.2.61.69.69,0,0,1-.61.57,2.14,2.14,0,0,1-.87-.11q-.32-.11-.88-.36c-.38-.16-.77-.35-1.17-.56l-1.13-.59a8.43,8.43,0,0,1-.76-.47,1.53,1.53,0,0,1-.62-.87,6.4,6.4,0,0,1-.21-1.33c0-.32-.11-.9-.25-1.72s-.31-1.65-.51-2.49-.4-1.62-.61-2.3a2.8,2.8,0,0,0-.56-1.22,7.7,7.7,0,0,0-1.75-1q-1.27-.57-2.78-1.12t-3-1c-1-.29-1.75-.51-2.3-.66Q215,324.93,214.2,324.75Zm8.9-8.24a10.38,10.38,0,0,1-.44-2c0-.45-.18-.72-.45-.79a.39.39,0,0,0-.37.13,3.52,3.52,0,0,0-.42.49q-.23.31-.42.62a3.45,3.45,0,0,1-.44.57c-1.69,1.78-2.52,2.68-4.17,4.48q-.88,1-1.27,1.38a1.61,1.61,0,0,0-.44.65c-.05.23.23.43.86.6,4,1.07,6,1.64,10,2.85C224.61,321.9,224.12,320.11,223.1,316.52Z"/><path class="cls-8" d="M116.93,408.68c-5.67-8.51-25.56-46.32,0-51.11s19.17,8,27.15,8,10.9-13.78,27.15-6.39c17.57,8,11.18,16,9.58,24s-9.58,19.17-12.78,25.56S120.12,413.47,116.93,408.68Z"/><circle class="cls-9" cx="144.08" cy="359.17" r="9.58"/><path class="cls-9" d="M109.2,393.85s11.73,7.65,13.32-3.53,12.78-9.58,12.78,0,16,11.18,16,0,12.78-9.58,12.78,0,11.7,4.79,13.83.8c-4.25,7.19-8.48,15-8.48,15s-.91,3.36-5.53,4.94-32.56,3.44-45.74-1.48C114.53,404.69,110.25,397.38,109.2,393.85Z"/><path class="cls-7" d="M107.15,104.76c13.73-.29,27.38-1.76,41.09-2.19s27.31,2,40.82,3.72c1.84.24,1.82-2.65,0-2.89-13.52-1.76-27.15-4.14-40.82-3.72s-27.36,1.9-41.09,2.19c-1.86,0-1.86,2.93,0,2.89Z"/><path class="cls-7" d="M188.85,149.69q-41.41-.22-82.77-2.71c-1.86-.11-1.85,2.78,0,2.89q41.34,2.49,82.77,2.71a1.45,1.45,0,0,0,0-2.89Z"/></g></g></svg>