<svg xmlns="http://www.w3.org/2000/svg" viewBox="0 0 219.08 694.8"><defs><style>.cls-1{fill:#c76834;}.cls-2{fill:#d1d3d4;}</style></defs><title>whisky</title><g id="Layer_2" data-name="Layer 2"><g id="Layer_1-2" data-name="Layer 1"><path class="cls-1" d="M58.19,167.79l99.38-.65s-9.68,34.85-5.16,38.72c-12.58,1.61-39.69,5.49-87.44.32C67.36,201.69,59.8,188.77,58.19,167.79Z"/><path d="M110,209.74a419.78,419.78,0,0,1-45.16-2.59L63.44,207l.67-1.26c1-1.82-.18-5.9-1.76-11.56a130.25,130.25,0,0,1-5.13-26.31l-.08-1,101.7-.66-.34,1.24c-4,14.22-8.26,35.33-5.46,37.73l1.65,1.42-3.4.44A298.37,298.37,0,0,1,110,209.74Zm-43.75-4.39c45.17,4.77,71.69,1.4,84.58-.26-2.38-6.86,3.47-29.68,5.45-37l-97.06.63a130.53,130.53,0,0,0,5,24.9C65.71,199,66.78,202.79,66.27,205.35Z"/><path class="cls-2" d="M65,206.19s-3.23-.65-3.87,3.23,7.1,8.39,47.11,8.39,49,0,49-6.45-5-5.61-5-5.61S118.53,212,65,206.19Z"/><path d="M108.21,218.77c-28,0-43.45-2.13-47.17-6.52a3.62,3.62,0,0,1-.89-3A4.83,4.83,0,0,1,62,205.9a4.32,4.32,0,0,1,3.06-.67c52.76,5.72,86.62-.38,87-.44a5.46,5.46,0,0,1,4.13,1.13c1.34,1.14,2,3,2,5.43C158.22,218.77,149.6,218.77,108.21,218.77ZM64.46,207.12a2.32,2.32,0,0,0-1.33.39,3,3,0,0,0-1.08,2.07,1.68,1.68,0,0,0,.46,1.42c2.26,2.66,12,5.84,45.7,5.84,37.89,0,48.08,0,48.08-5.49,0-1.87-.45-3.2-1.34-4a3.5,3.5,0,0,0-2.55-.7c-.32.06-34.45,6.21-87.54.46h-.08A2.22,2.22,0,0,0,64.46,207.12Z"/><path class="cls-1" d="M64,213.44s-3,21.14-59.74,55.35c0,0-9,49,2.58,50.34,0,5.81.65,15.49.65,15.49s1.94,5.16,103.25,3.87,102-2.58,102-2.58l-.65-16.78s3.87-3.87,4.52-6.45,3.87-33.56-1.94-43.88c0,0-49.34-21.75-60.49-53.14C154,215.87,89.59,221.33,64,213.44Z"/><path d="M81.11,339.65c-46.07,0-73.34-1.67-74.48-4.7l-.06-.28c0-.09-.59-8.94-.64-14.76a5.45,5.45,0,0,1-2.82-2.08c-7-9.4,0-47.6.25-49.22l.08-.43.37-.22c55.75-33.58,59.25-54.45,59.28-54.65l.16-1.13,1.09.34c24.15,7.47,83.9,2.92,89.33,2.24l.85-1.1.59,1.67c10.87,30.64,59.48,52.37,60,52.58l.29.13.16.28c6,10.59,2.79,41.56,2,44.59-.6,2.42-3.48,5.57-4.47,6.6l.64,16.61-.11.22c-.3.61-.42.83-13.82,1.34-11.71.44-36.65,1.11-89,1.78C100.2,339.58,90.28,339.65,81.11,339.65ZM8.47,334.08c1.86.88,14.92,4.54,102.3,3.43,82-1,97.9-2.09,101-2.42l-.63-16.35.3-.3c1-1,3.79-4.1,4.26-6,.65-2.59,3.74-32.61-1.69-42.9a187.4,187.4,0,0,1-25.92-14.75c-22.3-15.21-31.1-29-34.52-38.09-1.34.18-4.08.4-9.86.77s-14.79.87-25,1.08c-17.23.36-40.35,0-53.9-3.9-1.37,4.78-9.83,24.7-59.57,54.73-.35,2-1.85,10.76-2.68,20.29-1.23,14.11-.49,23.44,2.16,27A3.33,3.33,0,0,0,7,318.16l.86.1v.87C7.86,324.11,8.34,332.09,8.47,334.08Zm-.25-.14h0Z"/><path class="cls-1" d="M10.12,615.32v12.26s-9.68,44.53,3.23,58.72c0,0,1.94,4.52,16.13,6.45s81.31.65,81.31.65H194s12.91-2.58,17.42-9,9.68-33.56,1.94-54.21l-.65-14.84s-9.68,3.87-16.13,4.52-160,1.94-168.43.65A98.42,98.42,0,0,1,10.12,615.32Z"/><path d="M67.43,694.8c-16.09,0-31.92-.24-38.09-1.08-13.3-1.81-16.27-5.88-16.81-6.86-5.47-6.12-7.69-18-6.61-35.3a183.43,183.43,0,0,1,3.23-24.08V613.89l1.33.53a98.19,98.19,0,0,0,17.86,5.1c3.53.54,35.23.69,84.79.39,41.35-.25,80.32-.74,83.4-1,6.25-.62,15.77-4.42,15.87-4.45l1.27-.51.7,16.05c3.39,9.12,4.68,20.73,3.63,32.71-.84,9.6-3.14,18.55-5.74,22.25-4.69,6.69-17.48,9.32-18,9.43l-.19,0H110.79C109.25,694.41,88.13,694.8,67.43,694.8ZM11.08,616.73l0,11.06c-.1.44-9.43,44.2,3,57.87l.11.12.06.15s2.15,4.07,15.37,5.88c14,1.9,80.49.65,81.16.64h83.17c1.14-.24,12.68-2.84,16.73-8.62,4.34-6.2,9.53-32.77,1.82-53.31l-.06-.3-.59-13.5c-2.86,1.08-9.94,3.57-15.13,4.09-7,.7-160.12,2-168.67.64A94.58,94.58,0,0,1,11.08,616.73Z"/><path d="M7.54,334.61l2.58,280.72a53.11,53.11,0,0,0,19.23,5.2c10.46.61,164.31.15,168-.59s15.35-4.61,15.35-4.61V335.9s-59.21,1.83-95.75,2.21S24.31,339.77,7.54,334.61Z"/><path d="M71.28,621.76c-21.85,0-38.69-.08-42-.27a53.57,53.57,0,0,1-19.62-5.31l-.51-.27v-.58l-2.59-282,1.27.39c14.92,4.59,62.62,4,97.45,3.59l11.72-.13c36.11-.37,95.14-2.19,95.73-2.21l1,0V616l-.66.22c-.48.16-11.72,3.9-15.47,4.64C195.21,621.35,120.52,621.76,71.28,621.76Zm-60.2-7a52.69,52.69,0,0,0,18.32,4.84c10.46.61,164.15.09,167.81-.57,3.13-.62,12.06-3.53,14.57-4.36V336.9c-7.94.24-61.23,1.83-94.77,2.18l-11.71.14c-35.93.44-80.42,1-96.78-3.32Z"/><path d="M58.52,167.47a94.09,94.09,0,0,1,1.29-29c3.23-14.84,7.74-32.91,9-41.95s2.58-18.07-3.23-27.1c0-8.39,1.94-25.81.65-33.56V7.42l5.16-5.81L143.7,1l4.52,5.16s.65,24.52,0,29.69.65,26.46,1.94,32.91c0,0-7.74,5.81-3.87,25.81s9,32.91,10.33,42.59,2.58,18.07,1.29,29.69Z"/><path d="M57.67,168.44l-.12-.84a96,96,0,0,1,1.3-29.38c1-4.8,2.23-10,3.38-15,2.46-10.7,4.77-20.81,5.64-26.89,1.3-9.11,2.53-17.71-3.08-26.44l-.15-.24v-.28c0-2.93.23-7,.48-11.24.47-8.06,1-17.2.17-22.16V7.06L71,.65,144.14,0l5,5.76v.35c0,1,.64,24.66,0,29.83-.63,5,.61,26,1.92,32.6l.12.6-.49.37c-.07.05-7.19,5.82-3.5,24.85,2,10.45,4.45,19.12,6.39,26.09,1.86,6.64,3.32,11.88,3.94,16.56l.21,1.56c1.19,8.87,2.32,17.25,1.08,28.36l-.09.86ZM66.58,69.1c5.83,9.26,4.5,18.54,3.22,27.52-.88,6.16-3.21,16.31-5.67,27.05-1.15,5-2.33,10.18-3.37,15a94.1,94.1,0,0,0-1.38,27.86l97.65-.63c1.06-10.43,0-18.14-1.17-27l-.21-1.56c-.6-4.54-2.05-9.73-3.89-16.29-2-7-4.39-15.72-6.43-26.24C141.9,77,147.39,70.05,149.1,68.38c-1.29-7.22-2.47-27.68-1.84-32.68.59-4.7.08-26.18,0-29.19l-4-4.56-71.4.64L67.23,7.79V35.74c.84,5.19.31,14.38-.17,22.51C66.82,62.36,66.6,66.24,66.58,69.1Z"/><path class="cls-2" d="M45.93,428.21c-2.53-8.39-3.79-12.47-6.31-20.3l-.41.13C36.7,417.45,35.45,422,33,431c-2.24.53-3.36.8-5.58,1.37q-1.93-16.24-3.93-32.47c2.93-1.45,4.41-2.14,7.37-3.46v30.82l.41-.11q3-13.8,5.82-27.64c1.76-.66,2.65-1,4.42-1.6,2.77,9.72,4.16,14.79,6.95,25.24l.52-.1V389.4c2.92-1,4.38-1.42,7.32-2.27q-1.87,20-3.77,39.9C49.86,427.48,48.55,427.71,45.93,428.21Z"/><path class="cls-2" d="M70.11,424.53c-3.14.36-4.71.56-7.84,1v-40c3-.77,4.57-1.13,7.62-1.78-.47,7.34-.7,11-1.17,18.31,4.2-.85,6.31-1.23,10.54-1.89V382c3.12-.5,4.68-.72,7.81-1.1q0,21.06,0,42.12c-1.89.12-2.83.19-4.71.34-1.24-7.21-1.86-10.79-3.1-17.91-3.67,0-5.51.1-9.16.29Z"/><path class="cls-2" d="M97.82,385.54l-1.94-2.75V380c4.34-.32,6.52-.42,10.87-.49l-1,42.73c-3.19,0-4.78.07-8,.18Z"/><path class="cls-2" d="M138.14,400.55v19.31c0,1.65-3.75,3.23-6.86,3-6.14-.37-9.22-.49-15.38-.6v-4.09c6,.11,9,.23,14.95.62-1-6.44-1.55-9.67-2.58-16.14-4.94-1.08-7.42-1.56-12.37-2.4V382.44c0-1.26,2-2.76,4.31-2.64a160.69,160.69,0,0,1,17.93,1.8v2.88c-6.08-.42-9.13-.51-15.24-.45l1.61,13.33C130,398.49,132.71,399.13,138.14,400.55Z"/><path class="cls-2" d="M158.23,406.6l-2.32.52v18.18c-2.83-.38-4.25-.55-7.1-.87q-.69-20.32-1.38-40.64h2.76c1.78.38,2.67.58,4.45,1,0,7.68,0,11.53,0,19.21,3-.8,4.5-1.17,7.49-1.81-.46-5.78-.69-8.68-1.16-14.49,3.62.46,5.42.75,9,1.42-.88,6.4-1.31,9.63-2.19,16.15-1.71.27-2.57.41-4.29.74,3.36,8.46,5,12.62,8.36,20.72l-1.88.79c-2.46-.44-3.7-.65-6.17-1C161.58,418.62,160.47,414.64,158.23,406.6Z"/><path class="cls-2" d="M184.24,412.46c-2.74-3.29-4.12-5-6.89-8.32,0-5,0-7.49,0-12.48,2.65,1,4,1.49,6.59,2.57.53,5.89.8,8.81,1.33,14.62,1.47.57,2.21.86,3.67,1.45.73-5.31,1.1-7.93,1.83-13.12,2.27,1,3.4,1.57,5.65,2.68,0,4.89,0,7.33,0,12.22-2.13.29-3.2.48-5.35.91,0,8,0,12,0,20-2.72-.66-4.08-1-6.82-1.58C184.24,423.81,184.24,420,184.24,412.46Z"/><path class="cls-2" d="M45.93,555.95c-2.53-9.75-3.79-14.54-6.31-23.87l-.41-.12c-2.51,7.91-3.76,11.72-6.25,19-2.24-1-3.36-1.45-5.58-2.47q-1.93-17.69-3.93-35.37c2.93.77,4.41,1.14,7.37,1.84q0,15.41,0,30.82l.41.17c2.32-9.19,3.48-14,5.82-23.86,1.76.43,2.65.64,4.42,1q3.55,14.49,6.95,29l.52.16V518.71c2.92.52,4.38.76,7.32,1.21Q54.41,539,52.5,558.08C49.86,557.28,48.55,556.85,45.93,555.95Z"/><path class="cls-2" d="M70.11,562.61c-3.14-.65-4.71-1-7.84-1.8q0-20,0-40c3,.41,4.57.6,7.62.95-.47,7.19-.7,10.78-1.17,17.93,4.2.56,6.31.79,10.54,1.18V522.67c3.12.27,4.68.39,7.81.58q0,21.06,0,42.12c-1.89-.22-2.83-.35-4.71-.61-1.24-7.48-1.86-11.21-3.1-18.64-3.67-.87-5.51-1.33-9.16-2.32Z"/><path class="cls-2" d="M97.82,529.41l-1.94-3v-2.75c4.34.17,6.52.22,10.87.26l-1,42.71c-3.19-.07-4.78-.13-8-.33Q97.82,547.88,97.82,529.41Z"/><path class="cls-2" d="M138.14,541.82v19.31c0,1.65-3.75,4.07-6.86,4.41-6.14.68-9.22.89-15.38,1.08v-4.09c6-.18,9-.37,14.95-1-1-6.27-1.55-9.42-2.58-15.73-4.94-.35-7.42-.59-12.37-1.2V526.76c0-1.26,2-2.86,4.31-2.92,7.19-.21,10.78-.4,17.93-1v2.88c-6.08,1-9.13,1.37-15.24,2.06L124.52,541C130,541.47,132.71,541.64,138.14,541.82Z"/><path class="cls-2" d="M158.23,541.63,155.91,543c0,7.27,0,10.91,0,18.18-2.83.69-4.25,1-7.1,1.58q-.69-20.11-1.38-40.21l2.76-.88c1.78-.2,2.67-.31,4.45-.54v19.21c3-1.9,4.5-2.86,7.49-4.79-.46-5.58-.69-8.38-1.16-14,3.62-1.06,5.42-1.6,9-2.72-.88,6.84-1.31,10.28-2.19,17.22l-4.29,2.71c3.36,7,5,10.34,8.36,16.72L170,557.26c-2.46.79-3.7,1.17-6.17,1.88C161.58,552.3,160.47,548.79,158.23,541.63Z"/><path class="cls-2" d="M184.24,534.17c-2.74-1.55-4.12-2.39-6.89-4.18,0-5,0-7.49,0-12.48,2.65-.52,4-.8,6.59-1.37.53,5.55.8,8.31,1.33,13.78,1.47-.38,2.21-.58,3.67-1,.73-5.81,1.1-8.68,1.83-14.38,2.27-.55,3.4-.84,5.65-1.43,0,4.89,0,7.33,0,12.22l-5.35,4.8c0,8,0,12,0,20-2.72,1.24-4.08,1.84-6.82,3C184.24,545.52,184.24,541.73,184.24,534.17Z"/><ellipse class="cls-2" cx="109.82" cy="474.32" rx="85.18" ry="34.2"/><path d="M109.82,509.49c-22.87,0-44.39-3.58-60.59-10.09-16.48-6.62-25.56-15.53-25.56-25.08s9.08-18.47,25.56-25.08c16.2-6.5,37.72-10.09,60.59-10.09s44.39,3.58,60.59,10.09C186.9,455.85,196,464.76,196,474.32s-9.08,18.47-25.56,25.08C154.21,505.91,132.69,509.49,109.82,509.49Zm0-68.4c-46.44,0-84.22,14.91-84.22,33.23s37.78,33.23,84.22,33.23S194,492.65,194,474.32,156.26,441.09,109.82,441.09Z"/><path class="cls-2" d="M64.65,69.7l86.47-.65S166.61,62,107.88,62,64.65,69.7,64.65,69.7Z"/><path d="M64.42,70.67l-.21-.1c-.29-.14-2.8-1.47-2.32-3.5.62-2.61,6.05-6.08,46-6.08,44.76,0,45.67,4.13,46,5.69.42,1.92-2.08,3.12-2.37,3.25l-.19.09h-.21Zm43.46-7.75c-41,0-43.93,3.83-44.11,4.59-.07.31.56.89,1.12,1.21l86-.64c.65-.34,1.14-.84,1.11-1C151.9,66.67,149.87,62.92,107.88,62.92Z"/></g></g></svg>